<?xml version="1.0" encoding="UTF-8" standalone="no"?>
<!-- Created with Inkscape (http://www.inkscape.org/) -->

<svg
   xmlns:dc="http://purl.org/dc/elements/1.1/"
   xmlns:cc="http://creativecommons.org/ns#"
   xmlns:rdf="http://www.w3.org/1999/02/22-rdf-syntax-ns#"
   xmlns:svg="http://www.w3.org/2000/svg"
   xmlns="http://www.w3.org/2000/svg"
   xmlns:xlink="http://www.w3.org/1999/xlink"
   xmlns:sodipodi="http://sodipodi.sourceforge.net/DTD/sodipodi-0.dtd"
   xmlns:inkscape="http://www.inkscape.org/namespaces/inkscape"
   width="210mm"
   height="297mm"
   viewBox="0 0 744.09448819 1052.3622047"
   id="svg4246"
   version="1.1"
   inkscape:version="0.91 r13725"
   sodipodi:docname="flower.svg">
  <defs
     id="defs4248" />
  <sodipodi:namedview
     id="base"
     pagecolor="#ffffff"
     bordercolor="#666666"
     borderopacity="1.0"
     inkscape:pageopacity="0.0"
     inkscape:pageshadow="2"
     inkscape:zoom="2.8"
     inkscape:cx="491.47824"
     inkscape:cy="420.09419"
     inkscape:document-units="px"
     inkscape:current-layer="layer1"
     showgrid="false"
     inkscape:window-width="1920"
     inkscape:window-height="1058"
     inkscape:window-x="1912"
     inkscape:window-y="-8"
     inkscape:window-maximized="1" />
  <metadata
     id="metadata4251">
    <rdf:RDF>
      <cc:Work
         rdf:about="">
        <dc:format>image/svg+xml</dc:format>
        <dc:type
           rdf:resource="http://purl.org/dc/dcmitype/StillImage" />
        <dc:title></dc:title>
      </cc:Work>
    </rdf:RDF>
  </metadata>
  <g
     inkscape:label="Calque 1"
     inkscape:groupmode="layer"
     id="layer1"
     style="display:inline">
    <image
       sodipodi:absref="D:\Users\oclietmarrel\Downloads\Atlas_flower.jpg"
       y="-110.85208"
       x="-1266.0714"
       id="image4802"
       xlink:href="file:///D:/Users/oclietmarrel/Downloads/Atlas_flower.jpg"
       preserveAspectRatio="none"
       height="1125"
       width="2000" />
    <path
       style="fill:#8b6ea8;fill-opacity:1;fill-rule:evenodd;stroke:#000000;stroke-width:1px;stroke-linecap:butt;stroke-linejoin:miter;stroke-opacity:1"
       d="m 504.06612,401.31889 c 1.40567,-1.6776 -1.32442,-4.82353 0,-6.56599 1.90324,-2.50399 7.52961,0.20467 9.09137,-2.52538 1.29781,-2.26865 -1.93771,-4.96382 -2.0203,-7.57615 -0.0542,-1.71607 0.0947,-3.59823 1.01015,-5.05076 1.34646,-2.13649 4.69986,-2.41847 6.06092,-4.54569 2.59833,-4.06095 3.49687,-9.34369 3.03045,-14.14213 -0.2481,-2.55233 -1.91639,-4.76135 -3.03045,-7.07107 -1.07993,-2.23895 -4.81022,-4.4319 -3.53554,-6.56599 1.46765,-2.45716 6.56249,2.02381 8.5863,0 1.54762,-1.54762 1.51523,-4.04061 0,-6.56599 -1.51523,-2.52539 -2.93255,-4.5928 -4.04061,-7.07107 -0.86923,-1.94412 -2.09361,-3.93259 -2.02031,-6.06092 0.10654,-3.0934 4.50886,-5.64807 3.53554,-8.58629 -0.9261,-2.79568 -4.54569,-4.04061 -7.57615,-4.54569 -3.03045,-0.50508 -9.48423,-4.19596 -12.6269,-8.08122 -2.7139,-3.35517 -1.7836,-8.80621 -4.54569,-12.12183 -2.51336,-3.01704 -6.31724,-5.01273 -10.10153,-6.06092 -0.3245,-0.0899 -0.68244,0.0774 -1.01015,0 -5.86225,-1.38389 -10.30019,-6.69733 -16.16244,-8.08122 -1.4747,-0.34813 -3.0614,-0.30466 -4.54569,0 -5.02399,1.03121 -10.32245,2.63836 -14.14213,6.06092 -3.31269,2.96828 -3.3887,8.50397 -6.56599,11.61675 -1.77565,1.7396 -4.44185,2.24435 -6.56599,3.53554 -11.49211,6.98562 -25.22754,11.99829 -33.33504,22.72843 -2.24668,2.97344 -2.30936,7.08731 -3.53553,10.6066 -1.29671,3.72175 -3.13083,7.27695 -4.04061,11.11168 -0.66524,2.80401 -1.33498,5.72283 -1.01015,8.5863 0.28211,2.48688 2.07201,4.60963 2.52538,7.07106 1.43368,7.78372 -1.91435,16.2028 0.50507,23.73859 1.18482,3.69038 3.7313,6.95312 6.56599,9.59645 4.13911,3.8597 9.06594,7.64884 14.64722,8.58629 2.53981,0.4266 5.07104,-0.91763 7.57614,-1.51522 3.05936,-0.7298 5.9522,-2.72002 9.09137,-2.52539 2.18447,0.13544 4.24238,1.30753 6.06092,2.52539 1.9783,1.32486 3.06304,3.74007 5.05076,5.05076 2.2707,1.49729 5.05076,3.53553 7.57615,3.03046 2.52538,-0.50508 10.32696,-3.24051 15.65736,-4.04061 3.66664,-0.55037 7.42665,-0.0955 11.11168,-0.50508 7.64785,-0.84995 17.78637,1.85753 22.72843,-4.04061 z"
       id="path4817"
       inkscape:connector-curvature="0"
       sodipodi:nodetypes="ssssssssssssssssssssssssssssssssssssssss" />
    <path
       style="fill:#7e8db8;fill-opacity:1;fill-rule:evenodd;stroke:#000000;stroke-width:1px;stroke-linecap:butt;stroke-linejoin:miter;stroke-opacity:1"
       d="m 450.71429,364.50506 c 0.47986,3.48457 -2.29436,6.74338 -4.28572,9.64286 -2.09691,3.05316 -4.61385,6.06832 -7.85714,7.85714 -5.66474,3.12437 -12.53079,3.3269 -18.92857,4.28572 -4.72254,0.70775 -9.78471,2.66647 -14.28572,1.07142 -5.39776,-1.91284 -10.89039,-6.2899 -12.5,-11.78571 -1.65556,-5.6527 0.79422,-12.39909 4.28572,-17.14286 3.80019,-5.16317 10.30092,-8.11541 16.42857,-10 4.55719,-1.40159 9.56462,-1.3804 14.28571,-0.71428 4.36156,0.61539 8.87604,1.78195 12.5,4.28571 4.45192,3.07579 9.61896,7.13948 10.35715,12.5 z"
       id="path4807"
       inkscape:connector-curvature="0"
       sodipodi:nodetypes="sssssssssss" />
    <path
       style="fill:#7e8db8;fill-opacity:1;fill-rule:evenodd;stroke:#000000;stroke-width:1px;stroke-linecap:butt;stroke-linejoin:miter;stroke-opacity:1"
       d="m 455.71429,365.21935 c -4.94872,4.54412 -7.99159,11.08867 -10,17.5 -1.21468,3.87754 -2.90977,8.51914 -1.07143,12.14285 2.70641,5.33484 9.38127,9.01347 15.35714,9.28572 4.89327,0.22293 12.85714,-5 13.21429,-6.42857 0.35714,-1.42857 7.14285,-13.21429 7.5,-16.42857 0.35714,-3.21429 -1.32515,-13.53568 -5,-18.92858 -1.24697,-1.82995 -3.15366,-3.70883 -5.35715,-3.92857 -5.35303,-0.53383 -10.68038,3.14722 -14.64285,6.78572 z"
       id="path4809"
       inkscape:connector-curvature="0"
       sodipodi:nodetypes="sssssssss" />
    <path
       style="fill:#7e8db8;fill-opacity:1;fill-rule:evenodd;stroke:#000000;stroke-width:1px;stroke-linecap:butt;stroke-linejoin:miter;stroke-opacity:1"
       d="m 475.35714,355.57649 c 3.21614,5.14825 6.34928,11.75965 12.14286,13.57143 5.37394,1.68055 11.87172,-0.62121 16.42857,-3.92857 3.50306,-2.54252 5.87177,-6.84053 6.78572,-11.07143 1.21595,-5.62892 -1.78572,-15.71429 -2.14286,-17.14286 -0.35714,-1.42857 -6.47491,-10.15394 -11.78571,-11.78571 -5.44565,-1.6732 -12.29453,-0.29055 -16.78572,3.21428 -2.89728,2.26098 -3.01595,6.70464 -4.64286,10 -1.24935,2.53061 -3.79367,4.68102 -3.92857,7.5 -0.16591,3.46684 2.08967,6.69923 3.92857,9.64286 z"
       id="path4811"
       inkscape:connector-curvature="0"
       sodipodi:nodetypes="ssssssssss" />
    <path
       style="fill:#7e8db8;fill-opacity:1;fill-rule:evenodd;stroke:#000000;stroke-width:1px;stroke-linecap:butt;stroke-linejoin:miter;stroke-opacity:1"
       d="m 456.78572,323.07649 c -1.63927,-0.79319 -10.97221,-12.18901 -10.71429,-19.64286 0.17587,-5.08267 4.53046,-9.35087 8.21429,-12.85714 3.47612,-3.30857 7.71189,-6.82027 12.5,-7.14286 5.38185,-0.36259 11.45007,2.01017 15,6.07143 3.47743,3.97832 3.97034,10.07342 3.92857,15.35714 -0.0429,5.42924 -1.07143,15 -4.28572,15.71429 -3.21428,0.71428 -8.34776,7.66343 -13.57143,7.85714 -4.09698,0.15193 -7.38094,-3.57144 -11.07142,-5.35714 z"
       id="path4813"
       inkscape:connector-curvature="0"
       sodipodi:nodetypes="sssssssss" />
    <path
       style="fill:#7e8db8;fill-opacity:1;fill-rule:evenodd;stroke:#000000;stroke-width:1px;stroke-linecap:butt;stroke-linejoin:miter;stroke-opacity:1"
       d="m 448.21429,344.50506 c -2.71563,2.70593 -6.52371,4.96167 -10.35715,5 -6.28558,0.0628 -12.01012,-4.22843 -17.14285,-7.85714 -8.79934,-6.22092 -17.14211,-13.86436 -22.5,-23.21429 -2.21151,-3.85925 -4.20213,-8.4541 -3.57143,-12.85714 0.57616,-4.02229 2.91956,-8.30834 6.42857,-10.35714 4.93902,-2.88373 11.49536,-1.61736 17.14286,-0.71429 6.0263,0.96364 12.24037,2.79394 17.14285,6.42857 5.66171,4.19751 9.05603,10.8506 12.85715,16.78572 2.61353,4.08081 6.70749,8.01179 6.78571,12.85714 0.0834,5.16385 -3.12731,10.28324 -6.78571,13.92857 z"
       id="path4805"
       inkscape:connector-curvature="0"
       sodipodi:nodetypes="sssssssssss" />
    <path
       style="fill:#6b293d;fill-opacity:1;fill-rule:evenodd;stroke:#000000;stroke-width:1px;stroke-linecap:butt;stroke-linejoin:miter;stroke-opacity:1"
       d="m 455.07372,358.89248 c 6.17044,1.44571 13.72501,-1.05107 18.18275,-5.55584 2.09843,-2.12057 3.06509,-5.65219 2.52538,-8.58629 -0.95638,-5.19935 -5.26612,-9.59441 -9.59645,-12.62691 -4.18743,-2.93244 -9.5717,-5.1564 -14.64721,-4.54569 -2.92399,0.35183 -5.82285,2.17938 -7.57615,4.54569 -2.06628,2.78872 -2.98806,6.66169 -2.52538,10.10152 0.41201,3.06307 2.64301,5.64566 4.54569,8.08123 2.56614,3.28484 5.03291,7.63541 9.09137,8.58629 z"
       id="path4815"
       inkscape:connector-curvature="0"
       sodipodi:nodetypes="sssssssss" />
  </g>
  <g
     inkscape:groupmode="layer"
     id="layer3"
     inkscape:label="Calque 2"
     style="display:inline">
    <path
       style="fill:#a8528e;fill-opacity:1;fill-rule:evenodd;stroke:#000000;stroke-width:1px;stroke-linecap:butt;stroke-linejoin:miter;stroke-opacity:1"
       d="m 555.26065,699.27242 c 5.4684,-8.88178 9.19572,-10.58576 15.93683,-14.37673 2.48267,-6.27455 0.24241,-15.04948 7.86829,-18.60116 -13.54417,-3.88318 -2.70085,-10.08898 -2.9438,-15.23895 -11.18932,7.38304 -19.52183,-10.01606 -25.25381,-18.94036 -3.2451,-0.72889 -2.80771,-6.10218 -3.27556,-11.92269 l -7.5175,0.79569 c -6.58821,3.50333 -9.20456,0.50725 -10.5891,-4.50453 l -5.30811,1.72707 -0.0788,-4.02575 -10.10152,-1.01015 c -4.54461,2.63942 0.27603,13.9007 -5.55584,14.39468 1.20888,6.32037 -10.2638,3.53562 -12.07324,8.54297 0.94021,4.74871 0.50319,8.12018 -0.93619,10.4893 -4.9891,0.65597 -4.15232,0.16456 -9.59273,2.15029 -5.61801,3.96994 -2.48703,12.52317 -7.69344,14.8131 3.44887,6.66254 1.16143,16.93286 7.14504,20.21574 5.93716,3.71017 10.50247,8.39689 10.73812,13.53244 8.20643,-2.15803 9.65438,1.92252 11.90736,5.25998 l 15.15229,4.04061 16.48063,-1.51786 c 4.79229,-3.32734 7.42143,-10.09329 12.6606,-5.82369 z"
       id="path4821"
       inkscape:connector-curvature="0"
       sodipodi:nodetypes="ccccccccccccccccccccccc" />
    <path
       style="fill:#8e9ac4;fill-opacity:1;fill-rule:evenodd;stroke:#000000;stroke-width:1px;stroke-linecap:butt;stroke-linejoin:miter;stroke-opacity:1"
       d="m 517.53312,664.18756 c -8.29043,-5.65301 -14.99878,-15.9056 -16.66751,-22.22335 -1.89384,-7.17001 1.50867,-19.8183 9.09137,-23.23351 4.90503,-2.2092 11.48998,1.61535 15.15229,5.55584 4.17205,4.48895 4.1579,20.89195 4.1579,20.89195 -0.0541,3.88414 0.14032,12.13833 -0.11729,12.26714 0,0 0.72534,-11.33112 1.01015,-15.9865 0.59308,-9.69435 6.61168,-12.20443 12.62691,-14.14213 4.43228,-1.42778 10.04472,0.0676 13.63706,3.03045 3.25741,2.68665 5.00295,7.39461 5.05076,11.61676 0.0878,7.75157 -6.63025,14.45776 -10.48033,18.72372 -3.13615,3.47491 -14.25564,5.67731 -9.72272,4.50979 4.08032,-1.05094 14.72579,-3.52583 21.78141,-1.26269 3.20627,1.02843 7.4893,3.60436 9.09137,6.56599 2.48836,4.60007 3.91183,11.99678 0.44195,15.9099 -4.02738,4.54184 -17.11376,1.68916 -18.37215,1.45209 -6.5158,-1.22752 -13.61533,0.26072 -18.63212,-9.59459 0,0 -0.57956,1.43034 2.08376,9.47544 1.68152,5.07942 0.15143,13.0022 -2.96021,17.35488 -2.00896,2.8102 -4.14901,6.63768 -7.57615,7.07107 -6.27858,0.79398 -13.35734,-3.69751 -16.66751,-9.09137 -2.99534,-4.88085 -1.81124,-10.63496 0.38778,-15.9226 1.41787,-3.40932 9.81629,-11.42298 7.18836,-8.82614 -4.95622,4.89757 -11.09844,4.81998 -13.63706,5.05076 -5.59617,0.50874 -11.77219,0.23356 -16.66752,-2.52538 -3.43657,-1.9368 -6.25789,-5.43084 -8.11185,-8.9128 -1.97812,-3.71516 -5.08261,-8.64288 -2.99982,-12.3004 3.01076,-5.2871 11.63179,-5.22805 17.67766,-4.54569 5.83623,0.6587 9.34,1.6774 14.94308,3.43836 2.43052,0.76387 10.39538,7.08832 8.29043,5.65301 z"
       id="path4819"
       inkscape:connector-curvature="0"
       sodipodi:nodetypes="ssssscssssssssssssssssssssssss" />
    <path
       style="fill:#912b40;fill-opacity:1;fill-rule:evenodd;stroke:#000000;stroke-width:1px;stroke-linecap:butt;stroke-linejoin:miter;stroke-opacity:1"
       d="m 540.76663,665.70279 c 0.72783,2.9848 0.41113,6.69807 -1.51523,9.09138 -2.8424,3.53138 -8.1023,4.77173 -12.6269,5.05076 -3.30145,0.2036 -7.67163,0.16462 -9.59645,-2.52538 -2.75017,-3.84346 -1.33776,-10.04056 1.01015,-14.14214 1.62401,-2.83699 4.87904,-4.89857 8.08122,-5.55584 3.36373,-0.69043 7.19646,0.18947 10.10153,2.02031 2.13649,1.34646 3.94741,3.60742 4.54568,6.06091 z"
       id="path4823"
       inkscape:connector-curvature="0"
       sodipodi:nodetypes="ssssssss" />
  </g>
</svg>
