<?xml version="1.0" encoding="UTF-8" standalone="no"?>
<!-- Created with Inkscape (http://www.inkscape.org/) -->

<svg
   xmlns:dc="http://purl.org/dc/elements/1.1/"
   xmlns:cc="http://creativecommons.org/ns#"
   xmlns:rdf="http://www.w3.org/1999/02/22-rdf-syntax-ns#"
   xmlns:svg="http://www.w3.org/2000/svg"
   xmlns="http://www.w3.org/2000/svg"
   xmlns:sodipodi="http://sodipodi.sourceforge.net/DTD/sodipodi-0.dtd"
   xmlns:inkscape="http://www.inkscape.org/namespaces/inkscape"
   width="225.77785mm"
   height="225.79216mm"
   viewBox="0 0 800.00025 800.05096"
   id="svg4211"
   version="1.1"
   inkscape:version="0.91 r13725"
   sodipodi:docname="Tree4.svg">
  <defs
     id="defs4213" />
  <sodipodi:namedview
     id="base"
     pagecolor="#ffffff"
     bordercolor="#666666"
     borderopacity="1.0"
     inkscape:pageopacity="0.0"
     inkscape:pageshadow="2"
     inkscape:zoom="0.7"
     inkscape:cx="-214.43032"
     inkscape:cy="293.4874"
     inkscape:document-units="px"
     inkscape:current-layer="layer1"
     showgrid="false"
     fit-margin-top="0"
     fit-margin-left="0"
     fit-margin-right="0"
     fit-margin-bottom="0"
     inkscape:window-width="1920"
     inkscape:window-height="1053"
     inkscape:window-x="1911"
     inkscape:window-y="-9"
     inkscape:window-maximized="1" />
  <metadata
     id="metadata4216">
    <rdf:RDF>
      <cc:Work
         rdf:about="">
        <dc:format>image/svg+xml</dc:format>
        <dc:type
           rdf:resource="http://purl.org/dc/dcmitype/StillImage" />
        <dc:title />
      </cc:Work>
    </rdf:RDF>
  </metadata>
  <g
     inkscape:label="Calque 1"
     inkscape:groupmode="layer"
     id="layer1"
     transform="translate(-71.963875,152.38807)">
    <path
       inkscape:connector-curvature="0"
       style="display:inline;fill:#008000;fill-opacity:1;fill-rule:evenodd;stroke:none;stroke-width:1.3648212px;stroke-linecap:butt;stroke-linejoin:miter;stroke-opacity:1"
       d="m 460.90314,-151.52504 c -18.45976,5.9641 -27.03702,14.54833 -33.42396,24.30385 -0.44717,16.66418 9.52492,24.34253 21.63628,27.65866 22.34175,8.723537 28.16799,-35.21004 7.44217,-33.82325 10.11957,0.97654 12.47821,31.73793 -7.20045,28.79368 -5.51097,-2.5444 -14.74894,-4.97199 -16.5307,-21.67132 4.67761,-12.52783 21.36315,-20.82909 28.07666,-21.43057 37.79166,12.92579 50.79458,51.803505 49.74785,107.520578 -25.80099,-33.049986 -68.38574,-55.092186 -116.85897,-56.200985 -8.05757,-0.447188 -15.82365,-0.419987 -23.29068,0.02912 -29.33475,-18.901723 -38.67415,-37.191113 -54.18199,-38.212543 -30.46959,-3.98266 -38.48001,20.83228 -17.53247,32.51096 4.91956,1.8124 20.14393,3.724307 22.51719,-7.45042 0.13709,-10.83688 -10.93291,-12.14905 -14.09473,-12.53027 5.50664,3.30084 19.59697,11.8929 7.06885,18.25037 -5.20827,1.06844 -11.40832,0.12096 -13.94433,-1.14825 -23.28958,-17.8089 1.15429,-30.5905 14.10279,-27.12422 13.71533,1.13427 28.29779,18.83658 42.54471,37.016664 -29.47955,3.944615 -53.65702,14.581902 -71.89979,27.97615 -29.40267,0.895554 -36.55258,-25.717718 -43.35042,-45.062394 4.3334,13.59828 8.06601,49.127095 36.33528,50.570843 -6.80938,5.670718 -12.52286,11.632709 -17.18063,17.689487 -20.17813,9.128455 -80.78452,28.453934 -100.99703,-16.221091 -1.84652,-7.840608 -0.67187,-44.036579 28.56816,-54.841079 13.86347,-4.43497 34.96909,18.489327 11.84678,35.627638 -12.38267,1.344448 -18.7182,-6.000177 -17.9219,-10.254913 0.34149,-5.645434 7.38989,-7.852712 12.88346,-10.538015 -6.84908,0.109591 -16.24245,0.628117 -17.50293,12.143978 0.91452,3.388412 7.61525,11.779626 21.14747,11.085694 9.16172,1.676373 32.15397,-32.114302 -6.80565,-43.583422 1.32085,-1.09111 -36.81323,5.91841 -35.9754,60.106125 11.37141,32.046391 47.97434,37.016944 90.6462,29.381033 l -36.33799,41.001154 40.8554,-41.850459 c 0.65453,-0.129274 1.30628,-0.251515 1.96326,-0.38629 -3.34787,6.156091 -5.64536,12.283441 -6.9077,18.178939 -7.97345,37.238458 17.6206,71.815013 59.10225,82.19283 41.33513,-6.337887 44.06027,-47.348378 42.53397,-69.5805398 -1.27891,-18.6286192 -23.77477,-34.8282052 -41.56173,-25.2483762 15.83824,7.991767 40.90544,17.1949404 34.0336,48.851112 -12.31887,26.203038 -25.60252,28.518923 -43.75595,27.777713 -58.46877,-12.94324 -59.58522,-134.579 79.32583,-138.351507 -25.09554,13.600504 -22.78175,33.505412 -23.67743,42.964315 3.35074,-9.945699 -0.0356,-31.28827 37.99775,-42.916684 81.71005,-4.154989 132.46925,58.376413 121.83026,116.304474 -9.2691,-11.501389 -42.35873,-20.2531745 -66.42625,-29.61916 -14.26831,-11.954213 -26.81942,-24.246747 -18.56379,-40.638699 4.95661,-10.479828 25.57145,-10.843895 31.36669,-6.273075 14.01284,13.956617 11.39777,42.944083 -18.99083,16.670866 -1.07267,1.396402 5.1903,18.652334 22.20295,14.205029 9.67186,-4.04821 16.75441,-20.353938 -4.67049,-36.794442 -2.8967,-0.902071 -7.61382,-2.263051 -13.00431,-2.211843 -6.93063,0.06586 -14.97345,2.468995 -21.69537,11.199452 -1.98721,2.722542 -12.41651,27.641866 20.94873,49.5998566 48.40212,17.6313134 57.78036,30.1285994 66.45311,41.8478164 -6.0841,31.945357 -21.83601,64.8076 -42.59841,92.79965 -10.46392,15.66795 -17.76104,34.5232 -19.19227,47.47795 -1.86802,-18.46679 -4.65854,-33.10059 -8.20222,-44.63908 5.97665,-13.72291 18.60003,-25.98986 28.44461,-38.86603 -9.92387,11.70153 -22.89579,20.77504 -29.61828,35.23606 -9.60103,-28.16174 -24.19175,-35.89269 -41.11859,-34.99796 -37.9216,19.19746 -11.36467,54.83036 3.88895,51.48629 14.9954,-2.03573 19.68369,-21.09248 2.43058,-32.08765 9.87877,15.27522 11.68946,28.15217 -3.1611,27.29884 -30.17221,-9.57343 -15.14148,-42.33044 0.97224,-42.3849 23.73659,4.64361 37.63553,26.2105 33.34875,77.17913 -11.93066,-7.59863 -31.46336,-18.41696 -56.44875,-27.57399 -39.35377,-68.781592 7.02701,-112.397222 42.1123,-120.206948 4.70696,-4.860615 61.37277,10.433755 29.60216,39.149137 C 418.68151,80.616769 427.37763,48.38812 440.24985,49.16295 426.19239,38.448424 406.46743,88.014459 452.6257,79.980631 470.86655,73.778169 474.79606,29.708265 418.34771,30.960203 378.58197,39.544217 343.17645,77.718514 348.30645,125.33407 324.206,83.102554 295.61845,71.084354 278.33232,74.900805 c -22.37726,17.081819 -10.8884,40.987305 -7.21924,43.347935 11.63784,12.04907 27.37182,3.71122 31.79909,0 0.83228,-23.239089 -10.49664,-22.619577 -14.09473,-23.197922 29.77873,30.941822 -10.06266,28.675952 -14.26663,20.996662 -14.88527,-20.997041 8.0787,-36.913485 8.0787,-36.913485 33.7425,-5.767145 48.44002,41.701995 61.52746,67.456005 -34.37333,-8.09806 -75.06113,-11.04457 -118.64765,-0.85986 -24.13255,-22.2678 -67.94826,-58.788736 -5.10289,-75.570514 10.70769,-1.660858 28.48933,-0.739599 29.18318,11.614835 -6.15903,22.436259 -24.82227,12.871462 -26.78751,6.963592 -1.9309,-3.801098 1.25324,-16.109473 16.50114,-3.386554 -2.28065,-5.088105 -9.41739,-8.378355 -12.34362,-8.437287 -5.62973,0.02493 -16.39688,14.314721 3.24437,21.184501 5.60771,1.55958 17.96197,2.196777 22.24324,-16.991001 -0.52185,-9.465638 -8.93526,-16.252407 -32.55647,-13.488019 -20.82753,-0.497596 -67.08201,25.896669 -2.86836,80.264087 -0.76699,0.20795 -1.5385,0.4375 -2.30704,0.65348 l -38.53223,-15.86125 c 0,0 32.12733,14.8946 35.83575,16.62588 -5.82637,1.70633 -11.69411,3.64227 -17.6023,5.85771 -1.72351,0.64624 -2.81918,1.04244 -4.44221,1.64828 -9.2225,-2.03812 -18.2428,-5.21036 -26.90836,-9.22574 -15.78058,-17.22609 -30.62041,-35.45789 -32.70418,-67.350157 0.95815,16.141128 0.74809,38.435947 22.31575,62.029577 C 107.50321,116.88623 75.172439,68.877226 83.689149,36.169681 99.114806,9.1486547 116.31248,3.0936382 134.9786,14.379286 c 13.21022,19.544432 5.65478,30.22401 0.2444,37.117206 -4.63398,4.335607 -31.21529,9.743685 -35.247562,-22.988915 -4.086441,3.382625 -3.464306,40.42224 38.650392,29.455128 13.65671,-14.204391 14.74284,-23.057834 2.67499,-47.414451 C 122.94019,0.46057098 97.994104,-5.1280705 77.369622,31.621627 69.839418,47.694635 57.827599,111.16426 162.878,162.21051 c -18.79075,4.35105 -60.30523,0.70813 -64.360905,2.31236 -25.227698,10.9439 -23.549986,17.35191 -24.308586,25.86221 9.296019,27.70863 33.239931,7.47465 36.947631,-2.87328 -10.09425,-12.30026 -16.297295,-7.35528 -22.605809,-2.87329 10.492022,-2.59895 16.572029,-1.47089 17.989039,3.59294 -11.343119,18.3262 -25.509327,11.97958 -27.955801,0.47887 -1.668788,-10.7681 15.671953,-18.09055 20.90576,-20.35373 17.109771,-1.34468 37.145171,3.03541 50.768431,5.38672 -69.426144,30.51109 -69.828647,114.28689 -38.47853,154.1916 0.42297,17.12428 -13.530761,29.38009 -36.101622,38.71789 19.134841,-6.19649 38.008662,-12.60487 41.029952,-31.81777 17.77255,23.50772 43.37489,43.60948 73.10298,56.37033 102.16795,-12.50685 57.28303,-114.52242 24.57985,-112.43375 -46.683,4.14954 -53.79174,24.43435 -55.00383,30.98701 1.53284,41.04818 51.15553,34.68681 50.87853,27.26179 -40.29672,-0.50261 -40.81838,-15.971 -40.04966,-28.78573 9.49095,-13.12545 21.95912,-22.12323 39.87777,-22.85928 21.78689,-4.28167 63.73095,80.86662 -19.07945,92.28372 -34.55751,5.11234 -146.792817,-126.29865 -33.68984,-196.42039 11.17465,-4.5102 22.47848,-8.55659 33.86441,-12.05933 -21.8768,41.2139 7.07227,87.04496 46.75057,91.81278 18.79881,1.47129 27.66377,-9.90296 30.76777,-26.41516 -5.8995,-21.86414 -15.94853,-19.42869 -26.47059,-16.08615 -19.47841,12.95407 -11.27514,18.04194 -8.07869,24.55256 -0.64023,-6.64829 -2.72204,-14.33075 9.79756,-21.84331 19.0103,-2.03115 17.45021,7.08297 18.90757,14.5622 0.83905,16.50185 -16.16218,22.51069 -24.40796,22.68994 -59.23998,-16.44841 -51.0112,-75.17669 -29.45176,-94.27598 66.05538,-16.54523 134.32088,-11.76465 197.48201,40.28683 -114.47348,1.74208 -114.27421,69.99827 -54.06919,98.01442 47.78914,-3.50794 18.86626,-43.36364 7.56303,-44.53326 -23.30298,6.34482 -30.94605,20.36444 -3.26585,26.58449 -27.04641,-12.40961 -7.41139,-19.35065 2.92207,-23.0286 6.9494,2.31328 34.94646,31.09452 -6.87548,36.74417 -16.01807,-10.67947 -35.75768,-17.96718 -36.26815,-48.59711 3.71044,-19.22844 23.46956,-48.15956 104.86449,-31.94743 10.42506,9.98611 20.69245,21.33962 30.76507,34.20954 7.11804,10.76595 16.6715,44.14219 23.7231,63.42388 -27.60885,-2.84557 -46.57733,-11.18563 -65.50237,-19.96746 -16.1651,-9.56461 -28.0384,-49.13984 15.64171,-43.34795 11.66504,8.05045 15.59741,16.67219 8.93812,26.0765 -16.80518,3.25627 -16.51222,-4.01471 -23.54852,-6.77311 1.64484,1.49362 -0.009,16.35032 25.43927,10.49833 0.52854,-1.66646 18.57638,-19.03806 -11.34453,-36.06685 -11.38713,-3.60726 -64.26823,10.99804 -15.81359,56.04754 24.12373,9.12356 58.74866,18.54533 71.70371,26.31197 2.26452,4.4298 4.59014,8.84223 6.95068,13.24991 -14.67848,-8.97863 -105.39551,-28.09118 -146.64643,1.63773 -16.00043,-3.11483 -22.93243,-21.9873 -29.63977,-37.47439 5.14535,15.95181 3.97461,36.14747 24.21727,41.95893 -4.19462,3.9683 -7.66457,8.61246 -10.19504,14.04362 -15.79998,33.9129 5.03503,64.4519 24.62012,64.17794 16.51869,-1.5418 38.0675,-16.99809 32.18046,-35.59326 -6.0811,-13.24716 -39.50562,-25.43483 -44.35221,-4.15647 9.69149,-10.27562 32.9412,-6.24087 35.86261,7.1012 3.76936,15.82506 -7.54319,24.91589 -23.16715,28.57409 -7.28426,1.15047 -34.90097,-16.07102 -25.98717,-48.34842 17.22963,-62.38953 179.14557,-1.7781 183.46786,10.99573 18.45941,42.6094 -78.03605,207.18044 -139.80587,262.70167 l 149.02599,0 c 76.20123,-135.04212 62.38091,-225.71613 24.00509,-307.01003 2.91074,-18.826 11.68126,-34.09735 24.27903,-45.54128 18.09806,-8.63774 37.40442,-13.7963 62.75485,-1.55041 17.72848,10.10944 12.28995,44.29158 -15.80018,59.38647 -0.98115,0.3506 -23.86321,-11.77221 -1.70274,-27.77769 16.68658,3.98239 6.96265,10.80316 0.24441,16.04379 21.53499,-6.28856 14.9069,-16.28856 0,-18.91709 -6.79407,1.12794 -26.27289,22.02774 0,35.20169 12.35125,-4.09694 51.47299,-36.82759 19.44738,-68.00898 -7.49479,-4.72961 -19.4915,-10.28542 -43.59481,-8.56163 8.55374,-4.0654 17.93351,-6.96466 27.81344,-8.68335 27.99789,4.05745 44.17667,19.1741 62.45139,32.33105 -23.81783,-21.35229 -33.26577,-28.13751 -48.78369,-33.92379 75.48588,-8.77896 153.16916,74.29897 87.69996,98.66263 -19.31617,0.27981 -25.12792,-22.80028 -24.12326,-25.51562 2.13007,-17.98013 32.08521,-22.26398 39.87777,-4.06386 5.98268,-12.6909 -25.75259,-29.87894 -46.75325,-4.06388 -2.72854,8.60368 1.28982,39.72057 33.0023,39.62274 32.39047,-6.51659 40.33964,-41.56099 20.69894,-72.95387 5.7399,0.14015 11.8477,-0.29064 18.28985,-1.66154 9.97898,1.23384 25.7245,7.2116 52.28317,30.08216 -14.22423,-13.53009 -28.61108,-26.25382 -44.37368,-32.20668 20.61633,-6.73601 44.29797,-23.86101 70.18897,-62.46614 21.39462,-70.67387 -66.28028,-69.25359 -75.35631,-52.92027 -9.71811,17.15434 4.97797,41.95131 30.86982,34.24392 17.48751,-12.18001 0.45553,-48.69071 -16.77241,-19.39864 15.85975,-17.10913 27.30362,1.1757 16.04458,16.52272 -27.47484,10.04904 -31.78906,-22.43632 -25.76693,-28.01584 8.68844,-18.81609 88.37469,-10.49789 67.0923,47.89335 -35.76993,54.64892 -80.95602,57.92632 -102.0928,55.54749 -12.43746,-11.54811 -36.6196,-23.78947 -56.1936,-28.35184 68.6814,-50.03939 8.09851,-86.52745 -22.24325,-84.02369 -50.41928,10.50676 -24.80919,49.03418 -10.93899,47.89334 19.26616,-1.00532 25.35816,-22.20254 14.34182,-30.17212 3.14377,16.31035 -8.21412,24.51866 -15.31405,24.18478 -10.83645,-0.34766 -23.61533,-33.97171 12.36779,-38.97451 60.57734,4.35897 40.74655,56.40285 8.08675,78.55757 -38.57983,-3.16461 -86.48098,3.04528 -120.65929,30.01602 -7.09068,-13.55479 -12.42065,-34.35435 -16.84759,-56.70897 -0.54633,-7.75059 -3.71167,-19.60343 23.74187,-31.495 7.5144,-0.0381 21.78262,6.78862 22.86097,23.53658 -1.83836,9.02598 -4.67881,13.63773 -14.51101,15.49878 -11.97659,-1.4 -13.8126,-19.52314 -11.12163,-23.11853 -2.5023,-2.5445 -12.6948,24.35613 12.71964,26.41515 0,0 13.2448,1.69755 16.67303,-20.31934 0.37613,-13.12658 -10.65343,-25.56197 -27.3515,-28.06347 -10.75601,1.27049 -21.13344,11.1561 -24.81351,19.18168 l -1.80748,-35.48214 -1.04745,42.39283 c -0.88414,3.57877 -0.18564,7.22959 -0.35719,10.91636 4.69018,22.80745 11.258,47.93018 11.9166,65.97175 -1.02199,0.99797 -2.03342,2.01017 -3.02415,3.0479 -6.36374,6.66564 -54.72163,-112.73227 -20.64523,-144.1986 34.07638,-31.4663 139.82425,-30.125 112.34425,36.55896 -12.18699,5.20553 -27.26905,7.19789 -33.54481,-14.12831 -1.52515,-13.9532 10.46474,-22.74125 24.30856,-17.95933 -5.58789,-5.47111 -27.52824,-13.42925 -31.60302,16.04382 -1.5804,10.57006 20.6564,35.5362 44.48649,16.5227 19.66951,-36.61643 -21.30314,-96.03069 -109.70148,-53.00758 6.57086,-11.32352 15.75619,-25.45624 28.13574,-37.01932 27.41639,-6.207647 53.7852,-5.01765 78.76989,5.94235 -22.32236,-11.418759 -45.67382,-15.340243 -69.83446,-13.358382 31.3183,-22.941976 77.39487,-31.09253 117.474,-25.510298 18.29859,12.429166 16.17233,25.215827 13.03656,38.02204 3.42303,-10.59647 8.28831,-20.699628 -2.86568,-36.278496 7.17774,1.463965 12.39663,2.899325 18.91293,5.286203 24.07928,8.820013 36.37594,15.105812 45.84011,28.748703 32.93939,64.93144 -8.74554,84.13917 -32.98618,78.31417 -33.29514,-22.50069 -5.20125,-67.95921 24.06419,-29.45248 3.05649,-37.94884 -49.8325,-28.07712 -49.5894,2.3944 0.31187,12.97801 9.72259,29.14627 25.52521,36.87645 24.35243,2.80236 72.46598,-35.15971 45.70313,-82.52883 -0.8006,-2.88103 -2.85154,-6.10539 -5.26403,-9.28131 32.58811,11.21498 84.20077,-6.998876 104.19573,-28.880996 27.6709,-41.551665 25.30442,-77.8342962 -17.25853,-78.0654443 -28.44255,16.2834243 -5.99615,48.9396933 9.96675,42.3848853 30.01521,-24.587467 -2.72313,-33.495045 -9.23893,-21.552268 10.18582,-4.865277 30.60633,-0.697239 9.48066,16.525344 -11.28429,9.199475 -31.02699,-15.500477 -9.72237,-31.84952659 30.69958,-8.14746421 45.27927,23.83675659 5.58902,76.62882459 -60.14225,44.437631 -98.84101,6.290365 -120.93054,-3.550587 -0.26965,-0.293197 -0.55017,-0.584374 -0.85674,-0.867815 34.50241,-0.115994 70.13112,5.037886 94.8816,-40.710125 3.86455,-14.037446 10.16793,-62.983603 -29.56724,-80.621272 -4.94359,-4.167334 -17.34587,-16.706098 3.239,-61.87082 -8.12413,14.42227 -24.03692,40.793436 -12.96137,58.468384 -3.07515,-0.824792 -6.35414,-1.500593 -9.87006,-1.994883 -43.27037,0.111522 -50.64711,16.588085 -59.12912,32.510965 -2.66638,50.919981 35.38764,44.949237 42.62797,45.041219 -13.65222,-7.817965 -43.66411,-33.4819416 -36.09626,-41.316005 14.5727,-33.259466 52.07323,-31.689805 53.9725,-30.140375 21.46099,0.870756 49.2958,17.287817 44.00305,75.858913 -20.89036,42.066091 -87.10942,35.210946 -121.3307,33.762401 -25.49283,-4.658629 -56.15063,-5.029566 -56.15063,-5.029566 -0.0609,-0.0095 4.9286,-7.378339 10.36692,-19.869567 15.32212,-13.03468 33.44856,-3.074414 55.23481,5.966151 -17.42069,-11.233749 -35.07226,-23.075248 -52.19723,-13.427177 9.78898,-25.7405378 18.28438,-66.773888 -1.1898,-110.481174 5.10494,-50.720866 75.92138,-79.846826 80.23901,-13.085888 -0.68566,10.441587 0.0232,16.556701 -7.58721,18.557302 -14.63116,1.840878 -16.62384,-8.250653 -17.85745,-16.953954 -2.1865,-8.672796 7.25831,-9.906836 11.40631,-8.307656 7.1,4.862097 1.98785,11.039331 0.40288,15.758071 4.95822,-2.712163 8.43166,-13.30161 -0.33035,-18.427641 -10.03379,-1.39063 -13.98492,4.255185 -14.44927,9.283928 0.27553,8.465865 2.47149,24.582548 22.70789,21.576091 16.94437,-6.807624 8.57028,-74.464499 -32.55377,-63.873669 -26.77485,6.2613 -43.66765,39.452717 -46.73713,45.774083 -3.56332,-6.608233 -7.7953,-13.253353 -12.79753,-19.896023 -13.54644,-17.98797 -37.14373,-18.80029 -43.57872,-16.87458 -58.16695,13.57995 -34.16518,58.088457 -5.12976,63.381557 11.21769,4.700785 40.47285,-34.872356 8.75282,-46.456707 12.05612,7.89954 12.98169,31.848139 -8.75282,38.074992 -23.13804,0.586529 -44.71078,-36.671222 7.00977,-51.930772 49.81896,6.08184 66.11995,76.099454 55.02263,128.5516418 L 618.15286,-36.686311 640.56263,9.0745594 c -6.2747,25.1454586 -19.0838,45.4649226 -37.72384,51.3328176 -25.67191,3.718805 -45.20625,12.293076 -58.73161,19.967458 5.69177,-18.650572 1.21335,-37.592552 9.75995,-59.320316 7.28553,-21.28388284 38.58443,-40.705775 48.30023,0.507976 -0.52363,16.583952 -11.87996,19.416919 -18.73567,18.795402 -19.65192,-7.494035 -7.65006,-18.317509 -2.75019,-26.415147 -7.24149,1.94114 -21.1814,19.908878 2.06264,29.632385 9.31594,0.953903 23.4176,-6.287397 24.06417,-23.875241 -2.16731,-22.0725479 -31.63838,-47.778897 -57.58213,-1.185308 -6.84157,14.749252 -9.27486,44.753659 -24.87795,74.787376 -2.83902,1.968988 -3.78384,2.344614 -2.83614,0.07141 22.76673,-44.06421 18.41933,-87.8663645 -2.97042,-122.270636 9.76345,-43.723736 -3.58852,-109.821526 -57.63853,-122.627816 z m -219.17199,39.40579 c -0.34169,-1.07209 -0.67655,-2.04397 -1.00983,-2.81243 0.34099,0.89971 0.67465,1.85754 1.00983,2.81243 z"
       id="path4172" />
  </g>
</svg>
