<?xml version="1.0" encoding="UTF-8" standalone="no"?>
<!-- Created with Inkscape (http://www.inkscape.org/) -->

<svg
   xmlns:dc="http://purl.org/dc/elements/1.1/"
   xmlns:cc="http://creativecommons.org/ns#"
   xmlns:rdf="http://www.w3.org/1999/02/22-rdf-syntax-ns#"
   xmlns:svg="http://www.w3.org/2000/svg"
   xmlns="http://www.w3.org/2000/svg"
   xmlns:sodipodi="http://sodipodi.sourceforge.net/DTD/sodipodi-0.dtd"
   xmlns:inkscape="http://www.inkscape.org/namespaces/inkscape"
   width="28.611479mm"
   height="33.060318mm"
   viewBox="0 0 101.37926 117.14286"
   id="svg4181"
   version="1.1"
   inkscape:version="0.91 r13725"
   sodipodi:docname="Tree2.svg">
  <defs
     id="defs4183" />
  <sodipodi:namedview
     id="base"
     pagecolor="#ffffff"
     bordercolor="#666666"
     borderopacity="1.0"
     inkscape:pageopacity="0.0"
     inkscape:pageshadow="2"
     inkscape:zoom="2.8"
     inkscape:cx="120.72542"
     inkscape:cy="7.7548868"
     inkscape:document-units="px"
     inkscape:current-layer="layer1"
     showgrid="false"
     inkscape:window-width="1920"
     inkscape:window-height="1005"
     inkscape:window-x="-9"
     inkscape:window-y="-9"
     inkscape:window-maximized="1"
     fit-margin-top="0"
     fit-margin-left="0"
     fit-margin-right="0"
     fit-margin-bottom="0" />
  <metadata
     id="metadata4186">
    <rdf:RDF>
      <cc:Work
         rdf:about="">
        <dc:format>image/svg+xml</dc:format>
        <dc:type
           rdf:resource="http://purl.org/dc/dcmitype/StillImage" />
        <dc:title></dc:title>
      </cc:Work>
    </rdf:RDF>
  </metadata>
  <g
     inkscape:label="Calque 1"
     inkscape:groupmode="layer"
     id="layer1"
     transform="translate(-52.167516,-56.647913)">
    <path
       style="fill:#000000;fill-opacity:1;fill-rule:evenodd;stroke:none;stroke-width:1px;stroke-linecap:butt;stroke-linejoin:miter;stroke-opacity:1"
       d="m 153.18963,132.89791 -4.64285,25.89286 -5.17857,3.39285 -4.82143,1.42857 -5.71429,-1.78571 -3.75,-6.78571 -3.21428,-6.42858 -0.89286,-5.17857 -2.14286,-3.92857 -3.03571,-5.89286 -2.14286,-10.89285 -1.60714,-9.64286 0,-8.03571 -0.71429,-8.214287 -3.57142,-12.14286 c 0,0 -2.67858,-5.89285 -2.67858,-6.60714 0,-0.71429 -3.03571,-12.14286 -3.03571,-12.14286 l -1.42857,-8.03571 -0.71429,-1.25 3.57143,19.46428 1.25,5.89286 2.14286,7.85714 0.71428,5.35715 1.42858,7.499997 0.53571,6.07143 -0.17857,8.21428 1.25,7.14286 0.71428,6.42857 3.03572,7.14286 0.89286,2.5 -3.92858,-1.07143 -3.21428,-2.14286 -3.39286,0.35714 -4.46428,-1.96428 c 0,0 -1.60715,-3.21429 -1.60715,-3.92857 0,-0.71429 -2.32143,-8.92857 -2.32143,-8.92857 l -1.250001,-6.96429 -2.5,-3.57143 -1.78571,-2.32143 -1.96429,-7.14285 -0.89285,-3.214287 1.07143,9.285707 2.14285,5 2.85715,3.92858 1.60714,7.5 1.785711,7.67857 -3.214281,2.14285 -4.64286,0.35715 -5.30979,-6.30726 -2.52232,-3.75 -2.52232,-3.75 c 0,0 1.36161,3.0091 1.36161,3.21429 l 1.3616,3.21429 1.96429,2.94642 1.96428,2.94643 0.80357,1.51786 0.80357,1.51786 -1.83306,2.91439 -3.39286,3.03572 -3.21428,2.67857 8.75,-4.46429 3.92857,-3.03571 5.892851,-1.25 1.78572,1.96428 2.5,1.96429 5.35714,1.07143 4.28572,2.14286 4.46428,1.42857 1.78572,3.39285 2.32142,6.25 2.67858,5 2.14285,5.35715 -0.71428,2.5 3.39285,0.17857 3.03572,1.07143 3.92857,0.89285 3.92857,0 5.53572,-3.92857 2.32142,0 2.85714,3.57143 0.35714,4.28572 z"
       id="path4213"
       inkscape:connector-curvature="0"
       sodipodi:nodetypes="cccccccccccccccsccccccccccccccccccsccccccccccccccccccccccccccccccccccccccccccccccc" />
    <path
       style="fill:none;fill-rule:evenodd;stroke:#000000;stroke-width:1px;stroke-linecap:butt;stroke-linejoin:miter;stroke-opacity:1"
       d="m 122.44614,142.13915 4.55915,-5.89132 0.0631,-1.57837 2.14658,-1.32582 1.8309,-1.51523 1.13642,-2.08344 0.1894,0"
       id="path4215"
       inkscape:connector-curvature="0"
       sodipodi:nodetypes="ccccccc" />
    <path
       style="fill:none;fill-rule:evenodd;stroke:#000000;stroke-width:1px;stroke-linecap:butt;stroke-linejoin:miter;stroke-opacity:1"
       d="m 126.92443,137.07165 -1.76777,-1.6415 -1.51523,-2.27284 c 0,0 0.37881,-2.65165 0.50508,-2.90419 0.12627,-0.25254 1.32582,-3.59867 1.32582,-3.59867 l 1.42053,-3.59867"
       id="path4217"
       inkscape:connector-curvature="0"
       sodipodi:nodetypes="cccscc" />
    <path
       style="fill:none;fill-rule:evenodd;stroke:#000000;stroke-width:1px;stroke-linecap:butt;stroke-linejoin:miter;stroke-opacity:1"
       d="m 126.72834,123.46636 3.75,-10 1.96429,-6.42857 2.5,-9.107137 -0.17857,-6.42857 c 0,0 -0.89286,-1.96429 -2.32143,-1.78572 -1.42857,0.17858 -5.89286,4.10715 -5.89286,4.10715"
       id="path4219"
       inkscape:connector-curvature="0" />
    <path
       style="fill:none;fill-rule:evenodd;stroke:#000000;stroke-width:1px;stroke-linecap:butt;stroke-linejoin:miter;stroke-opacity:1"
       d="m 103.01107,116.29077 1.78571,-6.78572 c 0,0 5,-7.5 5.71429,-7.85714 0.71428,-0.35714 3.39285,-2.321427 3.39285,-2.321427"
       id="path4221"
       inkscape:connector-curvature="0" />
    <path
       style="fill:none;fill-rule:evenodd;stroke:#000000;stroke-width:1px;stroke-linecap:butt;stroke-linejoin:miter;stroke-opacity:1"
       d="m 112.69857,94.103273 -12.00893,2.90178 -1.785721,4.999997 -1.60714,3.75 0,0"
       id="path4223"
       inkscape:connector-curvature="0"
       sodipodi:nodetypes="ccccc" />
    <path
       style="fill:none;fill-rule:evenodd;stroke:#000000;stroke-width:1px;stroke-linecap:butt;stroke-linejoin:miter;stroke-opacity:1"
       d="m 93.903919,107.80862 c 0,-0.71428 -5.89285,-19.196427 -5.89285,-19.196427 0,0 0.71428,-5.17857 1.78571,-7.85714 1.07143,-2.67857 1.42857,-5.17857 1.96429,-6.42857 0.53571,-1.25 1.25,-9.10714 1.25,-9.10714"
       id="path4225"
       inkscape:connector-curvature="0"
       sodipodi:nodetypes="ccssc" />
    <path
       style="fill:none;fill-rule:evenodd;stroke:#000000;stroke-width:1px;stroke-linecap:butt;stroke-linejoin:miter;stroke-opacity:1"
       d="m 88.023759,89.243543 -7.51269,-14.0242 -5,-4.64286 -2.5,-4.10714 -4.46429,-1.78572"
       id="path4227"
       inkscape:connector-curvature="0"
       sodipodi:nodetypes="ccccc" />
    <path
       style="fill:none;fill-rule:evenodd;stroke:#000000;stroke-width:1px;stroke-linecap:butt;stroke-linejoin:miter;stroke-opacity:1"
       d="m 83.502129,122.22826 c 0,0 -0.84821,-5.75892 -0.84821,-6.65178 0,-0.89286 -0.17857,-9.82143 -0.17857,-9.82143 l 2.67857,-9.642857"
       id="path4229"
       inkscape:connector-curvature="0"
       sodipodi:nodetypes="cscc" />
    <path
       style="fill:none;fill-rule:evenodd;stroke:#000000;stroke-width:1px;stroke-linecap:butt;stroke-linejoin:miter;stroke-opacity:1"
       d="m 83.636059,121.7372 -6.16071,-0.80358 -4.64286,-3.75 -1.60714,-5.89285 -1.60714,-6.78572 -3.03572,-5.535707"
       id="path4231"
       inkscape:connector-curvature="0"
       sodipodi:nodetypes="cccccc" />
    <path
       style="fill:none;fill-rule:evenodd;stroke:#000000;stroke-width:1px;stroke-linecap:butt;stroke-linejoin:miter;stroke-opacity:1"
       d="m 86.910089,142.78073 -8.72045,7.43861 -1.42857,5.53571 0,3.75"
       id="path4233"
       inkscape:connector-curvature="0"
       sodipodi:nodetypes="cccc" />
    <path
       style="fill:none;fill-rule:evenodd;stroke:#000000;stroke-width:1px;stroke-linecap:butt;stroke-linejoin:miter;stroke-opacity:1"
       d="m 78.903919,149.86219 -6.96428,-3.03571 -5.71429,1.96429 -6.07143,1.42857 -0.89285,4.10714 -2.14286,4.10714 -1.78572,1.25 -1.42857,4.64286 -0.35714,5.35714 -0.89286,3.75"
       id="path4235"
       inkscape:connector-curvature="0" />
  </g>
</svg>
