<?xml version="1.0" encoding="UTF-8" standalone="no"?>
<!-- Created with Inkscape (http://www.inkscape.org/) -->

<svg
   xmlns:dc="http://purl.org/dc/elements/1.1/"
   xmlns:cc="http://creativecommons.org/ns#"
   xmlns:rdf="http://www.w3.org/1999/02/22-rdf-syntax-ns#"
   xmlns:svg="http://www.w3.org/2000/svg"
   xmlns="http://www.w3.org/2000/svg"
   xmlns:xlink="http://www.w3.org/1999/xlink"
   xmlns:sodipodi="http://sodipodi.sourceforge.net/DTD/sodipodi-0.dtd"
   xmlns:inkscape="http://www.inkscape.org/namespaces/inkscape"
   width="210mm"
   height="297mm"
   viewBox="0 0 744.09448819 1052.3622047"
   id="svg2"
   version="1.1"
   inkscape:version="0.91 r13725"
   sodipodi:docname="Tree.svg">
  <defs
     id="defs4" />
  <sodipodi:namedview
     id="base"
     pagecolor="#ffffff"
     bordercolor="#666666"
     borderopacity="1.0"
     inkscape:pageopacity="0.0"
     inkscape:pageshadow="2"
     inkscape:zoom="3.959798"
     inkscape:cx="390.20666"
     inkscape:cy="752.62796"
     inkscape:document-units="px"
     inkscape:current-layer="layer1"
     showgrid="false"
     inkscape:window-width="1920"
     inkscape:window-height="1018"
     inkscape:window-x="-8"
     inkscape:window-y="-8"
     inkscape:window-maximized="1" />
  <metadata
     id="metadata7">
    <rdf:RDF>
      <cc:Work
         rdf:about="">
        <dc:format>image/svg+xml</dc:format>
        <dc:type
           rdf:resource="http://purl.org/dc/dcmitype/StillImage" />
        <dc:title></dc:title>
      </cc:Work>
    </rdf:RDF>
  </metadata>
  <g
     inkscape:groupmode="layer"
     id="layer2"
     inkscape:label="Calque 2"
     style="display:inline">
    <image
       sodipodi:absref="D:\Users\oclietmarrel\Downloads\Atlas.jpg"
       y="201.47758"
       x="186.12628"
       id="image4144"
       xlink:href="file:///D:/Users/oclietmarrel/Downloads/Atlas.jpg"
       preserveAspectRatio="none"
       height="279"
       width="279" />
  </g>
  <g
     inkscape:label="Calque 1"
     inkscape:groupmode="layer"
     id="layer1">
    <path
       style="fill:none;fill-rule:evenodd;stroke:#000000;stroke-width:1px;stroke-linecap:round;stroke-linejoin:round;stroke-opacity:1"
       d="m 282.32143,349.50506 c 0,0 5.18827,-8.0362 6.78571,-12.5 0.53101,-1.48382 0.21822,-3.21858 0.89286,-4.64286 0.99506,-2.10073 3.31797,-3.33497 4.46429,-5.35714 0.622,-1.09725 0.54931,-2.52268 1.25,-3.57143 2.92737,-4.38151 7.9867,-6.88405 11.78571,-10.53571 1.85127,-1.77946 4.17018,-3.2587 5.35714,-5.53572 2.01816,-3.87154 3.0109,-8.52116 2.5,-12.85714 -0.0842,-0.71429 -1.01573,-1.25564 -0.89285,-1.96429 0.46748,-2.69592 3.31512,-4.57735 5.71428,-5.89285 2.0779,-1.13935 4.60274,-1.23137 6.96429,-1.42857 3.32389,-0.27756 6.69052,-0.0583 10,0.35714 2.78023,0.34901 5.57572,0.84261 8.21428,1.78571 2.83266,1.01248 5.95797,1.93183 8.03572,4.10715 0.99355,1.0402 1.25993,2.58965 1.78571,3.92857 0.82562,2.10247 1.43806,4.28257 2.14286,6.42857 0.66371,2.02089 1.05863,4.14677 1.96429,6.07143 0.66088,1.40447 1.2408,3.02099 2.5,3.92857 1.39368,1.00451 3.31066,0.9377 5,1.25 1.94569,0.35969 4.21753,-0.33852 5.89285,0.71428 2.99183,1.88012 2.69656,7.09033 5.71429,8.92858 2.19534,1.33729 5.13184,0.36498 7.67857,0.71428 2.63729,0.36172 5.29489,0.70676 7.85714,1.42857 1.90454,0.53653 3.73689,1.31865 5.53572,2.14286 1.83987,0.84301 3.54217,1.96177 5.35714,2.85714 1.29002,0.6364 2.49074,1.82814 3.92857,1.78572 2.42194,-0.0715 4.51928,-1.90105 6.42857,-3.39286 1.19583,-0.93435 1.92119,-2.36289 3.03572,-3.39286 1.15412,-1.06655 2.18074,-2.77372 3.75,-2.85714 4.58728,-0.24384 7.94142,4.6281 11.78571,7.14286 3.39837,2.22306 7.23237,4.00721 9.95951,7.01613 1.94931,2.15072 3.12602,4.91846 4.29314,7.57614 1.10251,2.51056 1.2135,5.42092 2.52539,7.82869 1.14484,2.10118 2.83545,3.88229 4.54568,5.55583 1.75721,1.71951 4.04843,2.82898 5.80838,4.54569 1.32708,1.29447 3.53553,4.29315 3.53553,4.29315"
       id="path4147"
       inkscape:connector-curvature="0"
       sodipodi:nodetypes="caaaaaaaaaaaaaaaaaaaaaaaaaaaaaaaaaac" />
    <path
       style="fill:none;fill-rule:evenodd;stroke:#000000;stroke-width:1px;stroke-linecap:butt;stroke-linejoin:miter;stroke-opacity:1"
       d="m 334.10714,374.8622 c 0,0 8.32272,-0.8894 12.5,-0.89285 2.56575,-0.002 5.12325,0.30471 7.67858,0.53571 1.61046,0.14559 3.21986,0.75885 4.82142,0.53571 3.12013,-0.43471 6.56199,-1.30497 8.75,-3.57142 2.99524,-3.10261 2.72711,-8.19573 4.46429,-12.14286 1.61933,-3.67937 3.8504,-7.06467 5.53571,-10.71429 1.18633,-2.56904 2.21928,-5.20812 3.21429,-7.85714 0.77442,-2.06174 1.67302,-4.09832 2.14286,-6.25 0.25523,-1.16887 -0.39551,-2.64142 0.35714,-3.57143 0.98291,-1.21453 3.21693,-0.48768 4.46429,-1.42857 1.71338,-1.29241 3.57142,-5.35714 3.57142,-5.35714 l 0,0"
       id="path4149"
       inkscape:connector-curvature="0"
       sodipodi:nodetypes="caaaaaaaaaaac" />
    <path
       style="fill:none;fill-rule:evenodd;stroke:#000000;stroke-width:1px;stroke-linecap:butt;stroke-linejoin:miter;stroke-opacity:1"
       d="m 320.17857,263.07649 c 0,0 3.85148,4.20459 5.35714,6.60714 1.1171,1.78253 1.52822,3.95304 2.67858,5.71429 1.03803,1.58928 2.30964,3.04931 3.75,4.28571 1.17778,1.011 2.77671,1.45956 3.92857,2.5 1.06929,0.96585 2.67857,3.39286 2.67857,3.39286"
       id="path4151"
       inkscape:connector-curvature="0"
       sodipodi:nodetypes="caaaac" />
    <path
       style="fill:none;fill-rule:evenodd;stroke:#000000;stroke-width:1px;stroke-linecap:butt;stroke-linejoin:miter;stroke-opacity:1"
       d="m 292.85714,302.54077 c 0,0 4.95028,5.94449 8.03572,8.21429 2.53032,1.86143 5.40554,3.3144 8.39285,4.28571 2.17771,0.70807 4.50281,0.89231 6.78572,1.07143 0.89012,0.0698 1.81593,0.23033 2.67857,0 2.65354,-0.7085 4.8915,-2.53406 7.14286,-4.10714 1.97416,-1.37939 3.46586,-3.41171 5.53571,-4.64286 1.8145,-1.07926 4.29213,-0.94489 5.89286,-2.32143 2.60865,-2.2433 3.65702,-5.84275 5.17857,-8.92857 0.96792,-1.96301 1.99318,-3.94226 2.5,-6.07143 0.17972,-0.755 0.17857,-2.32142 0.17857,-2.32142"
       id="path4153"
       inkscape:connector-curvature="0"
       sodipodi:nodetypes="caaaaaaaaac" />
    <path
       style="fill:none;fill-rule:evenodd;stroke:#000000;stroke-width:1px;stroke-linecap:butt;stroke-linejoin:miter;stroke-opacity:1"
       d="m 316.07143,345.21935 c 0,-0.71429 -2.05847,-5.03831 -1.96429,-7.67858 0.0671,-1.88111 1.33599,-3.52935 1.78572,-5.35714 0.53307,-2.16653 0.63078,-4.41994 1.07143,-6.60714 0.35071,-1.74079 0.74017,-3.47757 1.25,-5.17857 0.45408,-1.515 1.60714,-4.46429 1.60714,-4.46429"
       id="path4155"
       inkscape:connector-curvature="0"
       sodipodi:nodetypes="caaaac" />
    <path
       style="fill:none;fill-rule:evenodd;stroke:#000000;stroke-width:1px;stroke-linecap:butt;stroke-linejoin:miter;stroke-opacity:1"
       d="m 308.57143,341.1122 c 0,0 3.07045,-3.52652 5.17857,-4.28571 0.16801,-0.0605 0.53571,0 0.53571,0"
       id="path4157"
       inkscape:connector-curvature="0"
       sodipodi:nodetypes="cac" />
    <path
       style="fill:none;fill-rule:evenodd;stroke:#000000;stroke-width:1px;stroke-linecap:butt;stroke-linejoin:miter;stroke-opacity:1"
       d="m 304.28571,329.68363 c 1.07143,0 4.05188,0.17216 5.89286,-0.53571 1.11117,-0.42725 1.84446,-1.51699 2.85714,-2.14286 1.13221,-0.69974 3.57143,-1.78571 3.57143,-1.78571"
       id="path4159"
       inkscape:connector-curvature="0"
       sodipodi:nodetypes="caac" />
    <path
       style="fill:none;fill-rule:evenodd;stroke:#000000;stroke-width:1px;stroke-linecap:butt;stroke-linejoin:miter;stroke-opacity:1"
       d="m 280.89286,331.29077 c 0,0 2.27575,-3.37667 3.21428,-5.17857 1.25647,-2.41231 1.35391,-5.51583 3.21429,-7.5 3.241,-3.45665 9.33743,-3.06861 12.67857,-6.42857 0.84465,-0.84941 1.2543,-2.06953 1.60714,-3.21428 0.65461,-2.12381 -0.11297,-4.62539 0.89286,-6.60715 0.9717,-1.91451 2.99902,-3.08322 4.64286,-4.46428 2.31535,-1.94522 7.32143,-5.35715 7.32143,-5.35715"
       id="path4161"
       inkscape:connector-curvature="0"
       sodipodi:nodetypes="caaaaaac" />
    <path
       style="fill:none;fill-rule:evenodd;stroke:#000000;stroke-width:1px;stroke-linecap:butt;stroke-linejoin:miter;stroke-opacity:1"
       d="m 328.92857,284.14792 c 0,0 -4.88636,-1.45062 -6.96428,-2.85715 -2.26587,-1.53375 -3.75872,-3.97914 -5.71429,-5.89285 -1.62555,-1.59075 -5,-4.64286 -5,-4.64286"
       id="path4163"
       inkscape:connector-curvature="0"
       sodipodi:nodetypes="caac" />
    <path
       style="fill:none;fill-rule:evenodd;stroke:#000000;stroke-width:1px;stroke-linecap:butt;stroke-linejoin:miter;stroke-opacity:1"
       d="M 308.57143,278.07649 318.75,278.25506"
       id="path4165"
       inkscape:connector-curvature="0"
       sodipodi:nodetypes="cc" />
    <path
       style="fill:none;fill-rule:evenodd;stroke:#000000;stroke-width:1px;stroke-linecap:butt;stroke-linejoin:miter;stroke-opacity:1"
       d="m 464.01786,379.8622 c 0,0 -2.8806,6.17577 -5.71429,7.58929 -1.57131,0.78381 -3.61531,0.59369 -5.26785,0 -4.3573,-1.5654 -7.05772,-5.99921 -10.71429,-8.83929 -5.6181,-4.36361 -11.44405,-8.45381 -17.23214,-12.58928 -2.15645,-1.54074 -4.83036,-2.50992 -6.51786,-4.55357 -1.53541,-1.85946 -1.87018,-4.44919 -2.94643,-6.60715 -0.98697,-1.97895 -2.6747,-3.659 -3.21428,-5.80357 -0.56647,-2.25145 0.66674,-4.71562 0.0893,-6.96428 -0.51051,-1.98799 -2.2509,-3.46063 -3.03571,-5.35715 -0.34235,-0.8273 -0.46892,-1.72823 -0.71429,-2.58928 -0.8672,-3.04314 -2.02418,-6.01126 -2.67857,-9.10715 -0.61457,-2.90748 -0.77088,-5.89324 -1.16071,-8.83928 -0.35448,-2.67893 -1.07143,-8.03572 -1.07143,-8.03572"
       id="path4179"
       inkscape:connector-curvature="0"
       sodipodi:nodetypes="caaaaaaaaaaaac" />
    <path
       style="fill:none;fill-rule:evenodd;stroke:#000000;stroke-width:1px;stroke-linecap:butt;stroke-linejoin:miter;stroke-opacity:1"
       d="m 377.85714,370.57649 c 0,0 4.22479,3.01049 6.42858,4.375 1.18956,0.73654 2.26863,1.9133 3.66071,2.05357 1.64819,0.16607 3.23598,-0.80679 4.73214,-1.51786 2.02052,-0.96027 3.40887,-3.35513 5.625,-3.66071 1.9769,-0.27259 3.72546,1.62138 5.71429,1.78571 1.07804,0.0891 2.26556,0.0732 3.21428,-0.44643 1.40714,-0.77072 1.78934,-2.77186 3.125,-3.66071 2.02945,-1.35054 4.72725,-1.26349 6.96429,-2.23214 1.96832,-0.8523 5.625,-3.125 5.625,-3.125"
       id="path4181"
       inkscape:connector-curvature="0"
       sodipodi:nodetypes="caaaaaaaac" />
    <path
       style="fill:none;fill-rule:evenodd;stroke:#000000;stroke-width:1px;stroke-linecap:butt;stroke-linejoin:miter;stroke-opacity:1"
       d="m 380.71429,366.38006 c 0,0 3.76125,-5.40325 6.25,-7.5 1.68261,-1.41759 3.5929,-2.72007 5.71428,-3.30357 2.26718,-0.6236 4.7879,-0.71835 7.05357,-0.0893 2.12482,0.58995 4.12683,1.86401 5.625,3.48215 1.32033,1.42606 1.76809,3.46161 2.67858,5.17857 0.72999,1.37659 1.42714,2.77302 2.23214,4.10714 0.22175,0.36751 0.71428,1.07143 0.71428,1.07143"
       id="path4183"
       inkscape:connector-curvature="0"
       sodipodi:nodetypes="caaaaaac" />
    <path
       style="fill:none;fill-rule:evenodd;stroke:#000000;stroke-width:1px;stroke-linecap:butt;stroke-linejoin:miter;stroke-opacity:1"
       d="m 403.125,346.38006 c 0,0 0.25889,2.52893 1.07143,3.39286 0.568,0.60393 1.57245,0.53735 2.32143,0.89285 0.65031,0.30867 1.41502,0.51772 1.875,1.07143 0.46311,0.55748 0.19849,1.54443 0.71428,2.05357 1.0047,0.99174 2.60744,1.27846 4.01786,1.33929 0.76446,0.033 2.23214,-0.53571 2.23214,-0.53571"
       id="path4185"
       inkscape:connector-curvature="0"
       sodipodi:nodetypes="caaaaac" />
    <path
       style="fill:#000000;fill-rule:evenodd;stroke:none;stroke-width:1px;stroke-linecap:butt;stroke-linejoin:miter;stroke-opacity:1;fill-opacity:1"
       d="m 464.46429,278.07649 -4.64286,25.89286 -5.17857,3.39285 -4.82143,1.42857 -5.71429,-1.78571 -3.75,-6.78571 -3.21428,-6.42858 -0.89286,-5.17857 -2.14286,-3.92857 -3.03571,-5.89286 -2.14286,-10.89285 -1.60714,-9.64286 0,-8.03571 -0.71429,-8.21429 -3.57142,-12.14286 c 0,0 -2.67858,-5.89285 -2.67858,-6.60714 0,-0.71429 -3.03571,-12.14286 -3.03571,-12.14286 l -1.42857,-8.03571 -0.71429,-1.25 3.57143,19.46428 1.25,5.89286 2.14286,7.85714 0.71428,5.35715 1.42858,7.5 0.53571,6.07143 -0.17857,8.21428 1.25,7.14286 0.71428,6.42857 3.03572,7.14286 0.89286,2.5 -3.92858,-1.07143 -3.21428,-2.14286 -3.39286,0.35714 -4.46428,-1.96428 c 0,0 -1.60715,-3.21429 -1.60715,-3.92857 0,-0.71429 -2.32143,-8.92857 -2.32143,-8.92857 l -1.25,-6.96429 -2.5,-3.57143 -1.78571,-2.32143 -1.96429,-7.14285 -0.89285,-3.21429 1.07143,9.28571 2.14285,5 2.85715,3.92858 1.60714,7.5 1.78571,7.67857 -3.21428,2.14285 -4.64286,0.35715 -5.35714,-6.60715 -4.82143,-6.60714 2.5,5.53572 3.92857,5.89285 1.60714,3.03572 -1.78571,3.21428 -3.39286,3.03572 -3.21428,2.67857 8.75,-4.46429 3.92857,-3.03571 5.89285,-1.25 1.78572,1.96428 2.5,1.96429 5.35714,1.07143 4.28572,2.14286 4.46428,1.42857 1.78572,3.39285 2.32142,6.25 2.67858,5 2.14285,5.35715 -0.71428,2.5 3.39285,0.17857 3.03572,1.07143 3.92857,0.89285 3.92857,0 5.53572,-3.92857 2.32142,0 2.85715,3.57143 0.35714,4.28572 z"
       id="path4213"
       inkscape:connector-curvature="0" />
    <path
       style="fill:none;fill-rule:evenodd;stroke:#000000;stroke-width:1px;stroke-linecap:butt;stroke-linejoin:miter;stroke-opacity:1"
       d="m 435.06008,286.60344 3.21986,-5.17703 0.0631,-1.57837 2.14658,-1.32582 1.8309,-1.51523 1.13642,-2.08344 0.1894,0"
       id="path4215"
       inkscape:connector-curvature="0" />
    <path
       style="fill:none;fill-rule:evenodd;stroke:#000000;stroke-width:1px;stroke-linecap:butt;stroke-linejoin:miter;stroke-opacity:1"
       d="m 438.19908,282.25023 -1.76777,-1.6415 -1.51523,-2.27284 c 0,0 0.37881,-2.65165 0.50508,-2.90419 0.12627,-0.25254 1.32582,-3.59867 1.32582,-3.59867 l 2.46225,-1.95717"
       id="path4217"
       inkscape:connector-curvature="0" />
    <path
       style="fill:none;fill-rule:evenodd;stroke:#000000;stroke-width:1px;stroke-linecap:butt;stroke-linejoin:miter;stroke-opacity:1"
       d="m 438.00299,268.64494 3.75,-10 1.96429,-6.42857 2.5,-9.10714 -0.17857,-6.42857 c 0,0 -0.89286,-1.96429 -2.32143,-1.78572 -1.42857,0.17858 -5.89286,4.10715 -5.89286,4.10715"
       id="path4219"
       inkscape:connector-curvature="0" />
    <path
       style="fill:none;fill-rule:evenodd;stroke:#000000;stroke-width:1px;stroke-linecap:butt;stroke-linejoin:miter;stroke-opacity:1"
       d="m 414.28572,261.46935 1.78571,-6.78572 c 0,0 5,-7.5 5.71429,-7.85714 0.71428,-0.35714 3.39285,-2.32143 3.39285,-2.32143"
       id="path4221"
       inkscape:connector-curvature="0" />
    <path
       style="fill:none;fill-rule:evenodd;stroke:#000000;stroke-width:1px;stroke-linecap:butt;stroke-linejoin:miter;stroke-opacity:1"
       d="m 421.96429,239.50506 -10,2.67857 -1.78572,5 -1.60714,3.75 0,0"
       id="path4223"
       inkscape:connector-curvature="0" />
    <path
       style="fill:none;fill-rule:evenodd;stroke:#000000;stroke-width:1px;stroke-linecap:butt;stroke-linejoin:miter;stroke-opacity:1"
       d="m 403.39286,245.93363 c 0,-0.71428 -4.10714,-12.14286 -4.10714,-12.14286 0,0 0.71428,-5.17857 1.78571,-7.85714 1.07143,-2.67857 1.42857,-5.17857 1.96429,-6.42857 0.53571,-1.25 1.25,-9.10714 1.25,-9.10714"
       id="path4225"
       inkscape:connector-curvature="0" />
    <path
       style="fill:none;fill-rule:evenodd;stroke:#000000;stroke-width:1px;stroke-linecap:butt;stroke-linejoin:miter;stroke-opacity:1"
       d="m 398.03572,233.79077 -6.25,-13.39285 -5,-4.64286 -2.5,-4.10714 -4.46429,-1.78572"
       id="path4227"
       inkscape:connector-curvature="0" />
    <path
       style="fill:none;fill-rule:evenodd;stroke:#000000;stroke-width:1px;stroke-linecap:butt;stroke-linejoin:miter;stroke-opacity:1"
       d="m 395.35714,268.43363 c 0,0 -1.42857,-6.78571 -1.42857,-7.67857 0,-0.89286 -0.17857,-9.82143 -0.17857,-9.82143 l 2.67857,-9.64286"
       id="path4229"
       inkscape:connector-curvature="0" />
    <path
       style="fill:none;fill-rule:evenodd;stroke:#000000;stroke-width:1px;stroke-linecap:butt;stroke-linejoin:miter;stroke-opacity:1"
       d="m 393.75,266.46935 -5,-0.35715 -4.64286,-3.75 -1.60714,-5.89285 -1.60714,-6.78572 -3.03572,-5.53571"
       id="path4231"
       inkscape:connector-curvature="0" />
    <path
       style="fill:none;fill-rule:evenodd;stroke:#000000;stroke-width:1px;stroke-linecap:butt;stroke-linejoin:miter;stroke-opacity:1"
       d="m 393.21429,291.64792 -3.75,3.75 -1.42857,5.53571 0,3.75"
       id="path4233"
       inkscape:connector-curvature="0" />
    <path
       style="fill:none;fill-rule:evenodd;stroke:#000000;stroke-width:1px;stroke-linecap:butt;stroke-linejoin:miter;stroke-opacity:1"
       d="m 390.17857,295.04077 -6.96428,-3.03571 -5.71429,1.96429 -6.07143,1.42857 -0.89285,4.10714 -2.14286,4.10714 -1.78572,1.25 -1.42857,4.64286 -0.35714,5.35714 -0.89286,3.75"
       id="path4235"
       inkscape:connector-curvature="0" />
  </g>
</svg>
