<?xml version="1.0" encoding="UTF-8" standalone="no"?>
<!-- Created with Inkscape (http://www.inkscape.org/) -->

<svg
   xmlns:dc="http://purl.org/dc/elements/1.1/"
   xmlns:cc="http://creativecommons.org/ns#"
   xmlns:rdf="http://www.w3.org/1999/02/22-rdf-syntax-ns#"
   xmlns:svg="http://www.w3.org/2000/svg"
   xmlns="http://www.w3.org/2000/svg"
   xmlns:xlink="http://www.w3.org/1999/xlink"
   xmlns:sodipodi="http://sodipodi.sourceforge.net/DTD/sodipodi-0.dtd"
   xmlns:inkscape="http://www.inkscape.org/namespaces/inkscape"
   width="210mm"
   height="297mm"
   viewBox="0 0 744.09448819 1052.3622047"
   id="svg2"
   version="1.1"
   inkscape:version="0.91 r13725"
   sodipodi:docname="Tree3.svg">
  <defs
     id="defs4" />
  <sodipodi:namedview
     id="base"
     pagecolor="#ffffff"
     bordercolor="#666666"
     borderopacity="1.0"
     inkscape:pageopacity="0.0"
     inkscape:pageshadow="2"
     inkscape:zoom="1"
     inkscape:cx="253.61117"
     inkscape:cy="704.26259"
     inkscape:document-units="px"
     inkscape:current-layer="layer1"
     showgrid="false"
     inkscape:window-width="1920"
     inkscape:window-height="1053"
     inkscape:window-x="1911"
     inkscape:window-y="-9"
     inkscape:window-maximized="1" />
  <metadata
     id="metadata7">
    <rdf:RDF>
      <cc:Work
         rdf:about="">
        <dc:format>image/svg+xml</dc:format>
        <dc:type
           rdf:resource="http://purl.org/dc/dcmitype/StillImage" />
        <dc:title />
      </cc:Work>
    </rdf:RDF>
  </metadata>
  <g
     inkscape:label="Calque 1"
     inkscape:groupmode="layer"
     id="layer1"
     style="display:inline">
    <image
       style="display:inline"
       sodipodi:absref="D:\Users\oclietmarrel\Downloads\500_F_4676866_ysSZVCObhwsjErsFZgxW8j01bmQLlJ7a.jpg"
       y="60.862202"
       x="90.5"
       id="image4144"
       xlink:href="file:///D:/Users/oclietmarrel/Downloads/500_F_4676866_ysSZVCObhwsjErsFZgxW8j01bmQLlJ7a.jpg"
       preserveAspectRatio="none"
       height="625"
       width="605" />
    <path
       style="fill:#00ffff;fill-opacity:1;fill-rule:evenodd;stroke:#000000;stroke-width:1px;stroke-linecap:butt;stroke-linejoin:miter;stroke-opacity:1"
       d="M 398.76953 96.210938 C 385.34518 100.61371 379.10761 106.95069 374.46289 114.15234 C 374.1377 126.45405 381.38962 132.1223 390.19727 134.57031 C 406.44468 141.01014 410.68165 108.57782 395.60938 109.60156 C 402.96855 110.32246 404.68381 133.0309 390.37305 130.85742 C 386.36535 128.97911 379.6473 127.18703 378.35156 114.85938 C 381.75323 105.61118 393.88731 99.483083 398.76953 99.039062 C 426.25247 108.58104 435.70847 137.28106 434.94727 178.41211 C 416.18422 154.0142 385.21564 137.74236 349.96484 136.92383 C 344.1052 136.59371 338.45753 136.61379 333.02734 136.94531 C 311.69447 122.99182 304.90264 109.49036 293.625 108.73633 C 271.46685 105.79628 265.64148 124.11498 280.875 132.73633 C 284.45261 134.07426 295.52411 135.48566 297.25 127.23633 C 297.3497 119.23641 289.29934 118.26775 287 117.98633 C 291.00456 120.42305 301.25135 126.76582 292.14062 131.45898 C 288.35305 132.24772 283.84424 131.54828 282 130.61133 C 265.0633 117.46458 282.83942 108.02904 292.25586 110.58789 C 302.22995 111.42522 312.83464 124.49329 323.19531 137.91406 C 301.75713 140.82602 284.17474 148.67861 270.9082 158.56641 C 249.52593 159.22752 244.32635 139.58127 239.38281 125.30078 C 242.53416 135.3392 245.2486 161.56702 265.80664 162.63281 C 260.8547 166.819 256.69973 171.22022 253.3125 175.69141 C 238.63851 182.43015 194.5642 196.69647 179.86523 163.7168 C 178.5224 157.92877 179.37663 131.20844 200.64062 123.23242 C 210.72245 119.95847 226.07092 136.88148 209.25586 149.5332 C 200.25091 150.52569 195.64357 145.10379 196.22266 141.96289 C 196.471 137.79536 201.59675 136.16592 205.5918 134.18359 C 200.61099 134.26449 193.77993 134.64728 192.86328 143.14844 C 193.52834 145.6498 198.40126 151.8443 208.24219 151.33203 C 214.90479 152.56955 231.62527 127.62485 203.29297 119.1582 C 204.25352 118.35273 176.52158 123.52724 177.13086 163.5293 C 185.4004 187.18635 212.01886 190.85567 243.05078 185.21875 L 216.625 215.48633 L 246.33594 184.5918 C 246.81194 184.4964 247.2859 184.40613 247.76367 184.30664 C 245.32903 188.85114 243.65824 193.37442 242.74023 197.72656 C 236.94177 225.21645 255.55433 250.7413 285.7207 258.40234 C 315.78052 253.72362 317.7623 223.44917 316.65234 207.03711 C 315.72229 193.28523 299.36281 181.32649 286.42773 188.39844 C 297.94565 194.29806 316.17507 201.09196 311.17773 224.46094 C 302.21917 243.80435 292.559 245.51397 279.35742 244.9668 C 236.83765 235.41194 236.02573 145.61889 337.04492 142.83398 C 318.79489 152.87404 320.47753 167.5681 319.82617 174.55078 C 322.26291 167.20874 319.80027 151.45339 347.45898 142.86914 C 406.88033 139.80187 443.79355 185.96334 436.05664 228.72656 C 429.31594 220.2361 405.25243 213.77542 387.75 206.86133 C 377.37376 198.03658 368.24632 188.96207 374.25 176.86133 C 377.85456 169.12499 392.84612 168.85623 397.06055 172.23047 C 407.251 182.53341 405.34927 203.93233 383.25 184.53711 C 382.46993 185.56795 387.0245 198.3065 399.39648 195.02344 C 406.43007 192.035 411.58066 179.99791 396 167.86133 C 393.89345 167.19541 390.46305 166.19071 386.54297 166.22852 C 381.50286 166.27712 375.65395 168.05115 370.76562 174.49609 C 369.32047 176.50591 361.73606 194.90166 386 211.11133 C 421.19909 224.12698 428.01916 233.35264 434.32617 242.00391 C 429.90168 265.58637 418.44654 289.84569 403.34766 310.50977 C 395.73807 322.07604 390.43144 335.99524 389.39062 345.55859 C 388.03215 331.92618 386.00282 321.12332 383.42578 312.60547 C 387.77213 302.47504 396.95214 293.41942 404.11133 283.91406 C 396.89447 292.55228 387.46101 299.25046 382.57227 309.92578 C 375.59018 289.13643 364.97949 283.42934 352.66992 284.08984 C 325.09249 298.26165 344.40528 324.5663 355.49805 322.09766 C 366.40303 320.59487 369.81246 306.52693 357.26562 298.41016 C 364.44968 309.68652 365.76645 319.19244 354.9668 318.5625 C 333.0249 311.49527 343.95558 287.31364 355.67383 287.27344 C 372.93561 290.70142 383.04322 306.62236 379.92578 344.24805 C 371.24954 338.63864 357.04493 330.65242 338.875 323.89258 C 310.25607 273.11715 343.9852 240.91954 369.5 235.1543 C 372.923 231.56613 414.13164 242.85663 391.02734 264.05469 C 368.06503 267.58094 374.38904 243.78934 383.75 244.36133 C 373.52711 236.45174 359.18268 273.04201 392.75 267.11133 C 406.01514 262.5326 408.87277 229.99963 367.82227 230.92383 C 338.90375 237.26066 313.15607 265.44141 316.88672 300.5918 C 299.36035 269.41597 278.57084 260.54399 266 263.36133 C 249.72675 275.97135 258.08171 293.61868 260.75 295.36133 C 269.2133 304.2561 280.65539 298.101 283.875 295.36133 C 284.48026 278.20594 276.24162 278.66327 273.625 278.23633 C 295.28075 301.07797 266.30721 299.40528 263.25 293.73633 C 252.4251 278.23605 269.125 266.48633 269.125 266.48633 C 293.66329 262.22895 304.35166 297.27127 313.86914 316.2832 C 288.87209 310.30512 259.28303 308.12996 227.58594 315.64844 C 210.03622 299.21007 178.17246 272.24986 223.875 259.86133 C 231.66187 258.63528 244.59307 259.31536 245.09766 268.43555 C 240.61868 284.99829 227.04635 277.93743 225.61719 273.57617 C 224.21299 270.77014 226.52857 261.68395 237.61719 271.07617 C 235.95865 267.32007 230.76865 264.89116 228.64062 264.84766 C 224.54656 264.86606 216.71646 275.41497 231 280.48633 C 235.07806 281.63762 244.06235 282.10801 247.17578 267.94336 C 246.79628 260.9557 240.67786 255.94562 223.5 257.98633 C 208.35376 257.61899 174.71648 277.10357 221.41406 317.23828 C 220.85629 317.3918 220.29523 317.56125 219.73633 317.7207 L 191.71484 306.01172 C 191.71484 306.01172 215.07854 317.0071 217.77539 318.28516 C 213.53833 319.5448 209.27117 320.97392 204.97461 322.60938 C 203.72124 323.08646 202.92444 323.37892 201.74414 323.82617 C 195.03733 322.3216 188.47757 319.97982 182.17578 317.01562 C 170.6998 304.2991 159.90795 290.84015 158.39258 267.29688 C 159.08936 279.21247 158.93661 295.67078 174.62109 313.08789 C 141.76928 294.3555 118.25763 258.91466 124.45117 234.76953 C 135.66905 214.82227 148.17558 210.35238 161.75 218.68359 C 171.35676 233.11154 165.86229 240.99534 161.92773 246.08398 C 158.5578 249.28458 139.22728 253.27689 136.29492 229.11328 C 133.32317 231.61037 133.7756 258.95348 164.40234 250.85742 C 174.33381 240.37156 175.12367 233.83583 166.34766 215.85547 C 152.9954 208.40862 134.85405 204.28301 119.85547 231.41211 C 114.37934 243.2774 105.64408 290.13148 182.03906 327.81445 C 168.37401 331.02646 138.18376 328.33721 135.23438 329.52148 C 116.88824 337.6004 118.10831 342.33088 117.55664 348.61328 C 124.31691 369.06814 141.72945 354.13115 144.42578 346.49219 C 137.08501 337.41198 132.57402 341.06244 127.98633 344.37109 C 135.61636 342.45251 140.03788 343.28526 141.06836 347.02344 C 132.81939 360.55207 122.51741 355.86692 120.73828 347.37695 C 119.5247 339.4278 132.13527 334.02229 135.94141 332.35156 C 148.38402 331.35891 162.95421 334.59235 172.86133 336.32812 C 122.37311 358.85179 122.0804 420.69614 144.87891 450.1543 C 145.18649 462.79565 135.03903 471.84304 118.625 478.73633 C 132.54028 474.16199 146.26575 469.43126 148.46289 455.24805 C 161.38749 472.60175 180.00607 487.44111 201.625 496.86133 C 275.92379 487.62861 243.28248 412.31945 219.5 413.86133 C 185.5511 416.92457 180.38146 431.89908 179.5 436.73633 C 180.61472 467.03861 216.70144 462.34257 216.5 456.86133 C 187.19533 456.49029 186.81596 445.07133 187.375 435.61133 C 194.27703 425.92196 203.34415 419.27968 216.375 418.73633 C 232.2189 415.57554 262.72155 478.43308 202.5 486.86133 C 177.36901 490.63532 95.749011 393.62607 178 341.86133 C 186.12646 338.53185 194.34685 335.54474 202.62695 332.95898 C 186.71766 363.3836 207.77006 397.21667 236.625 400.73633 C 250.29591 401.82245 256.7427 393.42584 259 381.23633 C 254.70976 365.09595 247.40187 366.89382 239.75 369.36133 C 225.58487 378.92419 231.55047 382.68011 233.875 387.48633 C 233.40941 382.57848 231.89548 376.90719 241 371.36133 C 254.82471 369.86191 253.69018 376.59007 254.75 382.11133 C 255.36018 394.2932 242.99651 398.729 237 398.86133 C 193.91937 386.7189 199.90352 343.36496 215.58203 329.26562 C 263.61896 317.05172 313.26314 320.58081 359.19531 359.00586 C 275.94767 360.29189 276.09258 410.67946 319.875 431.36133 C 354.62832 428.77173 333.59496 399.34975 325.375 398.48633 C 308.42856 403.17014 302.87035 413.51961 323 418.11133 C 303.33126 408.9504 317.61027 403.82643 325.125 401.11133 C 330.17875 402.81902 350.53884 424.06569 320.125 428.23633 C 308.47631 420.35261 294.12122 414.97273 293.75 392.36133 C 296.44831 378.16666 310.81758 356.80935 370.00977 368.77734 C 377.5911 376.14921 385.05778 384.53052 392.38281 394.03125 C 397.5592 401.97881 404.5067 426.61757 409.63477 440.85156 C 389.557 438.75092 375.76271 432.59418 362 426.11133 C 350.24438 419.05061 341.60986 389.83569 373.375 394.11133 C 381.85807 400.05427 384.71778 406.41895 379.875 413.36133 C 367.6539 415.76514 367.86694 410.39762 362.75 408.36133 C 363.94616 409.46394 362.743 420.43135 381.25 416.11133 C 381.63436 414.88113 394.75915 402.0572 373 389.48633 C 364.71903 386.8234 326.26272 397.60523 361.5 430.86133 C 379.04332 437.59646 404.22333 444.55172 413.64453 450.28516 C 415.29134 453.55529 416.98258 456.81259 418.69922 460.06641 C 408.02471 453.43827 342.05327 439.32914 312.05469 461.27539 C 300.41883 458.97599 295.37773 445.0441 290.5 433.61133 C 294.2418 445.38716 293.39042 460.29585 308.11133 464.58594 C 305.06091 467.51539 302.53748 470.94376 300.69727 474.95312 C 289.20718 499.98805 304.35886 522.53231 318.60156 522.33008 C 330.61432 521.1919 346.2851 509.78188 342.00391 496.05469 C 337.5816 486.27547 313.27455 477.27838 309.75 492.98633 C 316.79787 485.40074 333.70557 488.37925 335.83008 498.22852 C 338.57125 509.91078 330.34451 516.62175 318.98242 519.32227 C 313.68515 520.17157 293.60167 507.45845 300.08398 483.63086 C 312.61374 437.57413 430.36259 482.31825 433.50586 491.74805 C 446.92995 523.20285 376.75633 644.69125 331.83594 685.67773 L 440.21094 685.67773 C 495.62616 585.98794 485.57572 519.05124 457.66797 459.03906 C 459.78472 445.14148 466.16284 433.86798 475.32422 425.41992 C 488.48553 419.04343 502.52554 415.23532 520.96094 424.27539 C 533.85347 431.7383 529.89845 456.97199 509.4707 468.11523 C 508.75718 468.37404 492.11683 459.42484 508.23242 447.60938 C 520.36727 450.54924 513.29582 455.58442 508.41016 459.45312 C 524.07088 454.81081 519.25079 447.42869 508.41016 445.48828 C 503.46936 446.32094 489.30394 461.74943 508.41016 471.47461 C 517.39226 468.4502 545.84246 444.28802 522.55273 421.26953 C 517.10235 417.77807 508.37808 413.6767 490.84961 414.94922 C 497.07008 411.94809 503.89126 409.80782 511.07617 408.53906 C 531.43685 411.53432 543.20241 422.69363 556.49219 432.40625 C 539.17134 416.64372 532.3006 411.63479 521.01562 407.36328 C 575.91062 400.88255 632.40362 462.21171 584.79297 480.19727 C 570.74582 480.40384 566.51939 463.36583 567.25 461.36133 C 568.79904 448.08817 590.58308 444.92577 596.25 458.36133 C 600.60073 448.99275 577.52215 436.30432 562.25 455.36133 C 560.26575 461.71267 563.18798 484.68355 586.25 484.61133 C 609.80507 479.8007 615.58589 453.93048 601.30273 430.75586 C 605.47692 430.85933 609.91864 430.54132 614.60352 429.5293 C 621.86045 430.44013 633.31093 434.85299 652.625 451.73633 C 642.28082 441.74824 631.81838 432.35542 620.35547 427.96094 C 635.34812 422.98834 652.56994 410.34645 671.39844 381.84766 C 686.95708 329.67532 623.19796 330.72379 616.59766 342.78125 C 609.53043 355.4448 620.21776 373.75023 639.04688 368.06055 C 651.76418 359.06911 639.37815 332.11645 626.84961 353.74023 C 638.38317 341.11005 646.70541 354.60815 638.51758 365.9375 C 618.53728 373.35583 615.39989 349.37474 619.7793 345.25586 C 626.09773 331.36558 684.04734 337.50619 668.57031 380.61133 C 642.55763 420.95385 609.6973 423.37327 594.32617 421.61719 C 585.28137 413.09223 567.69559 404.0555 553.46094 400.6875 C 603.40758 363.7478 559.35035 336.81185 537.28516 338.66016 C 500.61914 346.41638 519.24337 374.85781 529.33008 374.01562 C 543.34086 373.27348 547.77109 357.62543 539.75977 351.74219 C 542.04599 363.78269 533.78628 369.84216 528.62305 369.5957 C 520.74254 369.33905 511.44946 344.51735 537.61719 340.82422 C 581.67037 344.04207 567.24898 382.46152 543.49805 398.81641 C 515.44194 396.48025 480.60717 401.06447 455.75195 420.97461 C 450.59544 410.96829 446.71936 395.6138 443.5 379.11133 C 443.1027 373.38975 440.8008 364.63983 460.76562 355.86133 C 466.23025 355.83323 476.60642 360.87277 477.39062 373.23633 C 476.05372 379.89943 473.98808 383.30387 466.83789 384.67773 C 458.12825 383.64422 456.79307 370.2655 458.75 367.61133 C 456.93027 365.73295 449.51806 385.59133 468 387.11133 C 468 387.11133 477.63192 388.36449 480.125 372.11133 C 480.39853 362.42113 472.37759 353.24118 460.23438 351.39453 C 452.41237 352.33242 444.86567 359.6301 442.18945 365.55469 L 440.875 339.36133 L 440.11328 370.65625 C 439.47031 373.29814 439.97827 375.99322 439.85352 378.71484 C 443.26433 395.55158 448.04059 414.0975 448.51953 427.41602 C 447.77633 428.15273 447.04079 428.89995 446.32031 429.66602 C 441.69245 434.58667 406.52553 346.44563 431.30664 323.2168 C 456.08774 299.98798 532.98993 300.97815 513.00586 350.20508 C 504.14321 354.04787 493.17521 355.51866 488.61133 339.77539 C 487.50222 329.47495 496.22153 322.98751 506.28906 326.51758 C 502.22542 322.47875 486.26992 316.60393 483.30664 338.36133 C 482.15734 346.16428 498.32843 364.5946 515.6582 350.55859 C 529.96231 323.52789 500.16609 279.66753 435.88086 311.42773 C 440.65933 303.06857 447.33911 292.63562 456.3418 284.09961 C 476.2796 279.51705 495.45557 280.39551 513.625 288.48633 C 497.39169 280.05685 480.40998 277.16196 462.83984 278.625 C 485.6152 261.68894 519.1231 255.6721 548.26953 259.79297 C 561.57666 268.96834 560.0304 278.40761 557.75 287.86133 C 560.2393 280.03887 563.77745 272.5806 555.66602 261.08008 C 560.88583 262.1608 564.68112 263.2204 569.41992 264.98242 C 586.9309 271.49347 595.8733 276.13372 602.75586 286.20508 C 626.71011 334.13828 596.39591 348.31767 578.76758 344.01758 C 554.55461 327.40729 574.98511 293.84923 596.26758 322.27539 C 598.49033 294.26109 560.02829 301.5485 560.20508 324.04297 C 560.43188 333.6235 567.27557 345.55911 578.76758 351.26562 C 596.4772 353.33436 631.46644 325.31028 612.00391 290.3418 C 611.42169 288.21499 609.93021 285.83473 608.17578 283.49023 C 631.87457 291.76927 669.40845 278.32357 683.94922 262.16992 C 704.07212 231.49595 702.35116 204.71166 671.39844 204.54102 C 650.71439 216.56165 667.03791 240.66892 678.64648 235.83008 C 700.47421 217.6793 676.66616 211.10361 671.92773 219.91992 C 679.33508 216.32831 694.18533 219.40521 678.82227 232.11914 C 670.61609 238.9103 656.25875 220.67649 671.75195 208.60742 C 694.07736 202.59286 704.68004 226.20402 675.81641 265.17578 C 632.07963 297.98019 603.93704 269.81941 587.87305 262.55469 C 587.67696 262.33825 587.47295 262.1233 587.25 261.91406 C 612.34092 261.82849 638.25091 265.63308 656.25 231.86133 C 659.06039 221.49871 663.64435 185.36604 634.74805 172.3457 C 631.15296 169.26932 622.13375 160.01304 637.10352 126.67188 C 631.19548 137.31858 619.62335 156.78611 627.67773 169.83398 C 625.44142 169.2251 623.05686 168.72622 620.5 168.36133 C 589.03284 168.44367 583.6683 180.60686 577.5 192.36133 C 575.56095 229.9511 603.23468 225.54343 608.5 225.61133 C 598.57181 219.84001 576.7465 200.89454 582.25 195.11133 C 592.8476 170.55877 620.11881 171.71752 621.5 172.86133 C 637.10691 173.50413 657.349 185.62341 653.5 228.86133 C 638.30806 259.91505 590.15209 254.85449 565.26562 253.78516 C 546.72668 250.3461 524.43164 250.07227 524.43164 250.07227 C 524.38734 250.06527 528.01583 244.62549 531.9707 235.4043 C 543.11327 225.78194 556.29523 233.13473 572.13867 239.80859 C 559.46996 231.5157 546.63335 222.77416 534.17969 229.89648 C 541.29845 210.8945 547.4765 180.60316 533.31445 148.33789 C 537.02686 110.89511 588.52615 89.393959 591.66602 138.67773 C 591.1674 146.38584 591.68292 150.90009 586.14844 152.37695 C 575.50834 153.73592 574.05922 146.28622 573.16211 139.86133 C 571.57203 133.45897 578.44051 132.54798 581.45703 133.72852 C 586.6203 137.31778 582.90264 141.8779 581.75 145.36133 C 585.35574 143.35917 587.88169 135.54191 581.50977 131.75781 C 574.21298 130.73123 571.33963 134.89904 571.00195 138.61133 C 571.20232 144.86093 572.79927 156.75847 587.51562 154.53906 C 599.83794 149.5136 593.74811 99.568433 563.8418 107.38672 C 544.37054 112.00889 532.08572 136.51121 529.85352 141.17773 C 527.2622 136.29944 524.18462 131.39393 520.54688 126.49023 C 510.69561 113.21128 493.53514 112.61162 488.85547 114.0332 C 446.55518 124.05809 464.0098 156.91483 485.125 160.82227 C 493.28274 164.29245 514.55775 135.07905 491.49023 126.52734 C 500.25772 132.35888 500.93081 150.03803 485.125 154.63477 C 468.2985 155.06776 452.61032 127.56362 490.22266 116.29883 C 526.4521 120.78852 538.30655 172.4764 530.23633 211.19727 L 513.125 180.98633 L 529.42188 214.76758 C 524.85878 233.33027 515.54372 248.33036 501.98828 252.66211 C 483.3191 255.40738 469.11329 261.73701 459.27734 267.40234 C 463.41653 253.63425 460.15972 239.65104 466.375 223.61133 C 471.67319 207.89931 494.43445 193.56182 501.5 223.98633 C 501.1192 236.22881 492.86062 238.32014 487.875 237.86133 C 473.58369 232.32914 482.3117 224.33912 485.875 218.36133 C 480.60883 219.79431 470.47142 233.05832 487.375 240.23633 C 494.14976 240.94052 504.4048 235.5949 504.875 222.61133 C 503.29888 206.3171 481.86686 187.34035 463 221.73633 C 458.02465 232.62441 456.25512 254.77404 444.9082 276.94531 C 442.84361 278.39883 442.15652 278.67612 442.8457 276.99805 C 459.40216 244.4693 456.24064 212.134 440.68555 186.73633 C 447.78574 154.45892 438.07589 105.6647 398.76953 96.210938 z M 239.38281 125.30078 C 239.13433 124.50935 238.89081 123.7919 238.64844 123.22461 C 238.89642 123.88879 239.13906 124.59587 239.38281 125.30078 z "
       id="path4172" />
  </g>
  <g
     inkscape:groupmode="layer"
     id="layer2"
     inkscape:label="Calque 2"
     style="display:inline" />
</svg>
